<?xml version="1.0" encoding="utf-8"?>
<!-- Generator: Adobe Illustrator 14.0.0, SVG Export Plug-In . SVG Version: 6.00 Build 43363)  -->
<!DOCTYPE svg PUBLIC "-//W3C//DTD SVG 1.1//EN" "http://www.w3.org/Graphics/SVG/1.1/DTD/svg11.dtd">
<svg version="1.1" id="Ebene_1" xmlns="http://www.w3.org/2000/svg" xmlns:xlink="http://www.w3.org/1999/xlink" x="0px" y="0px"
	 width="955px" height="650px" viewBox="0 0 955 650" style="enable-background:new 0 0 955 650;" xml:space="preserve">
<style type="text/css">
<![CDATA[
	.st0{font-size:14.5px;}
	.st1{fill:none;stroke:#000000;}
	.st2{font-family:'Arial';font-weight:bold;}
	.st3{fill:none;stroke:#676767;stroke-width:0.75;}
	.st4{fill:#FFFFFF;}
	.st5{fill:none;}
	.novalue{fill:#EAEAEA;stroke:#676767;stroke-width:0.75;}
	.st7{font-family:'Arial';}
	.st8{font-size:10px;}
	.st9{font-size:12px;}
	.st10{font-size:50px;}
	.st11, .hide{display:none;}
	.show{display:inline;}
]]>
</style>
<script type="text/javascript">
<![CDATA[
myDistricts = [];
myDistricts[0] = ['District', 'Population density', 'Average age', 'Rate females', 'Rate foreign nationality', 'Rate males'];
myDistricts[1] = ['Innere_Stadt', 5873, 46.9, 52, 20.7, 48.0];
myDistricts[2] = ['Leopoldstadt', 4991, 40.2, 50.8, 28.1, 49.2];
myDistricts[3] = ['Landstraße', 11495, 41.7, 52.6, 23.5, 47.4];
myDistricts[4] = ['Wieden', 17431, 42.2, 52.9, 24.4, 47.1];
myDistricts[5] = ['Margareten', 26437, 39.9, 51.1, 28.9, 48.9];
myDistricts[6] = ['Mariahilf', 20392, 41.5, 52, 22.7, 48.0];
myDistricts[7] = ['Neubau', 18936, 40.7, 52.8, 23.5, 47.2];
myDistricts[8] = ['Josefstadt', 21787, 41.1, 51.6, 23, 48.4];
myDistricts[9] = ['Alsergrund', 13375, 41, 52.5, 24.8, 47.5];
myDistricts[10] = ['Favoriten', 5569, 40.6, 51.5, 24.6, 48.5];
myDistricts[11] = ['Simmering', 3901, 39, 51.2, 19.6, 48.8];
myDistricts[12] = ['Meidling', 10931, 40.5, 52, 24, 48.0];
myDistricts[13] = ['Hietzing', 1360, 45.7, 54.7, 12.4, 45.3];
myDistricts[14] = ['Penzing', 2516, 42.7, 52.7, 17.7, 47.3];
myDistricts[15] = ['Rudolfsheim-Fünfhaus', 18355, 39.3, 50.6, 34.1, 49.4];
myDistricts[16] = ['Ottakring', 10997, 40.4, 51.4, 28.2, 48.6];
myDistricts[17] = ['Hernals', 4646, 40.8, 51.6, 26.6, 48.4];
myDistricts[18] = ['Währing', 7564, 42, 53.8, 21.6, 46.2];
myDistricts[19] = ['Döbling', 2759, 44.6, 54.3, 17.3, 45.7];
myDistricts[20] = ['Brigittenau', 14643, 39.8, 50.9, 29.1, 49.1];
myDistricts[21] = ['Floridsdorf', 3209, 41.3, 52.2, 14, 47.8];
myDistricts[22] = ['Donaustadt', 1554, 39.8, 52.1, 12, 47.9];
myDistricts[23] = ['Liesing', 2920, 42.7, 53.1, 11.3, 46.9];

myTopics = [];
myTopics[0] = ['topic', 'classmax1', 'classmax2', 'classmax3', 'classmax4', 'classcolor1', 'classcolor2', 'classcolor3', 'classcolor4', 'min', 'max', 'average', 'topic short', 'topic long line1', 'topic long line2'];
myTopics[1] = ['popdens', 5000, 12500, 20000, 27500, '#EFF3FF', '#BDD7E7', '#6BAED6', '#2171B5', 1360, 26437.2, 4132, 'Population density', 'Population per km²', ''];
myTopics[2] = ['age', 40, 42.5, 45, 47.5, '#f7f7f7', '#cccccc', '#969696', '#525252', 39, 46.9, 41.1, 'Average age', 'Average age in years', ''];
myTopics[3] = ['female', 51.6, 52.6, 53.6, 54.7, '#feebe2', '#fbb4b9', '#f768a1', '#c51b8a', 50.6, 54.7, 52.2, 'Rate females', 'Rate of female', 'population in %'];
myTopics[4] = ['foreign', 15, 20, 25, 35, '#edf8e9', '#bae4b3', '#74c476', '#238b45', 11.3, 34.1, 21.5, 'Rate foreign nationality', 'Rate of population', 'with foreign nationality in %'];
myTopics[5] = ['male', 46.4, 47.4, 48.4, 49.4, '#F2F0F7', '#CBC9E2', '#9E9AC8', '#6A51A3', 45.4, 49.4, 47.8, 'Rate males', 'Rate of male', 'population in %'];

function showTopic(number) {

	// show legend header
	document.getElementById("legend_heading1").firstChild.nodeValue = myTopics[number][13];
	document.getElementById("legend_heading2").firstChild.nodeValue = myTopics[number][14];
	document.getElementById("legend_meanvalue").firstChild.nodeValue = myTopics[number][11];

	// highlight the active topic
	for (var i = 1; i <6; i++) {
		if (i == number) { 
			document.getElementById('bullet_'+myTopics[i][0]).setAttribute('class','show');
		} else {
			document.getElementById('bullet_'+myTopics[i][0]).setAttribute('class','hide');
		}
	}
	
	// show maximum class values and set fill color
	for (var i = 1; i <5; i++) {
		document.getElementById("boxclass"+[i]).setAttribute('fill',myTopics[number][i+4]);
		document.getElementById("classmax"+[i]).firstChild.nodeValue = myTopics[number][i];
    }
	
	

	// coloring the districts
	for (var i = 1; i <24; i++) {
		if (myDistricts[i][number] <= myTopics[number][1]) {
			document.getElementById(myDistricts[i][0]).setAttribute('fill',myTopics[number][5]);
		} else if (myDistricts[i][number] <= myTopics[number][2]) {
			document.getElementById(myDistricts[i][0]).setAttribute('fill',myTopics[number][6]);
		} else if (myDistricts[i][number] <= myTopics[number][3]) {
			document.getElementById(myDistricts[i][0]).setAttribute('fill',myTopics[number][7]);
		} else if (myDistricts[i][number] <= myTopics[number][4]) {
			document.getElementById(myDistricts[i][0]).setAttribute('fill',myTopics[number][8]);

		}
	}
	
}

]]>
</script>

<g id="districts" class="novalue">
	<path id="Liesing" class="st6" d="M107.95,520.35l1.94,0.87l0.48,0.24l1.2,0.72l2.16,0.96l1.2,0.72l0.48,0.24l0.48-0.48v-0.96
		l-0.72-1.92l2.16,0.48h0.96l2.16,2.16l0.72,0.96l2.88,2.88l4.56,4.32l0.96-0.96l1.44-1.44l1.68-1.44l11.28-6.72h0.24l1.44-0.96
		l9.6-5.52l5.52-3.12h0.24l2.16-0.72l6.96-2.4l1.68-0.48h0.24v-0.24l0.72-0.48l6.96-6.24l2.64-0.48h0.72l1.2-0.24l7.92,0.96
		l3.84,2.16l3.6,1.92l2.88,1.92l6.48,4.08l2.4,1.68l0.48,0.24l0.24-0.72l3.12-5.28l4.08-6.72l2.64-4.56l1.2-1.92l0.48-0.72
		l2.16,2.16l0.24,0.24l1.2,1.2l-0.96,1.2l-1.2,2.16v0.24l-1.2,1.68l0.96,0.72l2.64,1.68l1.92-0.24l1.92-0.24l2.88-0.72h0.48
		l0.24-0.24h0.23l0.48,1.2l0.24,0.48l0.24,0.24l1.44,4.32l0.72,2.4h0.24h0.24v-0.24l0.72-0.24l-0.24-0.72l4.32-2.4l3.36-1.68v-1.2
		v-2.16v-0.96l0.24-5.52v-0.24l0.24-0.48v-0.24v-0.24v-0.24v-0.24l0.24-0.24v-0.48l0.48,0.24h0.24l0.72,0.24l4.32,0.72l2.88,0.24
		l-0.48,0.48l-0.24,0.48l-0.24,0.24l-0.24,0.48l-0.24,0.24l-0.24,0.48l-0.24,0.24l-0.24,0.48l-0.24,0.48l-0.24,0.24l-0.24,0.48
		l-0.24,0.24l-0.24,0.48l-0.24,0.48v0.48l-0.24,0.24v0.24l-0.48,1.2l-0.48,1.2l-0.48,0.96l-0.96,2.64l2.4,0.72l6.72,2.88l2.64-2.88
		l0.72-0.48v-0.24l1.2-1.2l0.72-0.48l1.44-1.44l0.72-0.48l0.72-0.96l0.72-0.48l0.24-0.24l1.68-1.44l0.24-0.24l1.68-1.2l0.72,0.24
		l0.24,0.24l1.44,0.48l0.24,0.24l0.72,0.24h0.48l0.48,0.24l0.72,0.24l0.96,0.24h0.72l0.48,0.24l1.2,0.24h0.48H281l2.64,1.2
		l0.72,0.24h0.48l0.72,0.24l0.48,0.24l0.96,0.24l2.88,0.48l2.4,0.48l2.16,0.48l1.2,0.24h0.24l-0.24,1.2v0.72h0.48l1.2-0.48h0.72
		l2.4-0.72l0.24,2.16l0.24,1.44h0.48l4.08-0.72h0.24v-0.24l0.24-0.24v-0.24l0.24-0.24v-0.24h0.24h1.68l1.44,0.24l1.44,0.24
		l5.52,1.68l1.44,0.72l1.2,0.24l1.2,0.72l1.2,0.48l0.96,0.72h0.96l0.24-0.24l0.24-0.48l0.24-0.24l0.48-0.48l0.24-0.24l0.24-0.48
		l0.72-0.72l1.44-1.68l2.4-2.4l2.16-2.4l1.2-1.44l1.92,4.8l0.72,1.44l0.72,2.4l1.2,3.36l0.72,0.96l0.48,0.96l0.24,0.24l0.24,0.48
		l0.24,0.24l0.96,0.96l0.96,0.48l0.96,0.72l1.2,0.72l0.96,0.24l2.4,0.72l0.72,0.24l3.12,0.72l5.28,1.44l3.12,0.24l4.08,0.24
		l3.84,0.24l5.76,0.24l2.16,0.24h3.12h1.2l1.2,0.24l0.72,0.24l0.48,0.24l1.44,0.24l0.72,0.24l6.24,2.4l6.24,2.16l3.36,1.2l2.64,1.2
		l5.04,1.92h0.24h0.24h0.48l2.88,0.96l1.92,0.72l-2.64,8.4v0.24l-2.88,6.72l-1.68-0.48l-0.72-0.24l-0.72-0.72l-0.24-0.24l-0.24,0.72
		l-0.72,1.92l-0.96,2.64l-1.2,3.12l-1.44,3.84l0.48,0.24h0.24H401v0.24l-0.72,1.92l-2.16,5.76l-0.48,0.24l-2.64,6.24l-0.24,1.68
		l-0.48,0.96l-0.72,3.6h-0.24h-0.48l-0.72,3.6v0.24l-0.96,4.08h-1.92l-1.92-0.24l-2.16-0.48l-4.32-0.48h-0.48l-0.24-0.24h-0.24
		h-0.48l-2.88-0.48l-0.24-0.24h-0.24h-0.48l-0.24-0.24l-0.24-0.24l-0.24-0.24v-0.24l-4.08-2.4l-0.96-0.72l-0.72-0.24l-3.12-2.16
		l-0.72-0.48H365l-0.48-0.48l-0.24-0.24l-0.96-0.96h-0.24l-0.24-0.24l-0.24-0.24h-0.24h-0.24v-0.24l-3.6-0.72l-3.84-0.96h-0.24
		h-0.24l-0.48-0.24H353l-4.32-1.44l-1.68-0.72l-0.48-0.24l-3.12-0.96l-3.6-1.2h-0.48l-1.68-0.72l-3.36-0.96l-2.88-0.72l-3.6-1.2
		l-1.68-0.48l-0.24-0.24l-1.44-0.48l-4.8-1.44l-2.88-0.96h-0.24h-0.48l-2.64-0.72l-0.24-0.24h-0.96l-0.48-0.24l0.72,4.32l-0.24,0.96
		l-0.72,1.44l-0.48,0.96l-0.72,1.92l-2.16,4.8l-0.48,0.96l-1.2,3.6l-2.4,7.2l-0.96,2.64l-0.96,2.88l-0.48,0.72l-0.24,0.96
		l-0.48,1.44v0.24l-0.72,2.16l-0.48,1.2l-2.88-1.2l-0.96-0.48l-1.68-0.96l-2.64-0.48l-0.72,0.24v0.48l-0.24,1.2l-0.24,0.96
		l-0.24,0.48l-0.96,4.56l-0.24,2.16v0.48l-0.48,2.64l-0.24,3.12l0.24,0.96v0.24l-0.72,0.24h-0.48l-0.48,0.24l-1.68-0.24l-1.68-0.24
		h-0.72l-2.88-1.68l-1.68-0.96l-0.48-0.24l-4.32-3.36l-0.96-0.72l-1.44-1.44l-1.44-1.2l-1.44-1.44l-0.72-0.72l-1.68-2.4l-0.48-0.24
		l-0.24-0.48l-0.48-0.24l-1.44-0.72l-1.68-0.72h-0.24h0.24l0.24-1.68l0.48-2.16v-0.72l-2.16-7.68h-0.24l-2.4-0.24l-4.32-0.96
		l-6.48-1.44l-4.32-0.72l-1.68-0.48h-0.48h-0.24l-1.68,0.24h-0.72l-1.68,0.48h-0.24h-0.24v0.24h-0.24v0.24l-0.72,0.48h-0.24
		l-0.24,0.24h-0.24L233,587.7l-0.24-0.24h-0.24l-4.8-4.32l-0.72-0.72h-0.24l-0.72-0.24h-1.2l-0.96-0.24l-1.2-0.24h-0.48l-1.2-0.48
		l-0.96-0.24l-2.4-1.2l-1.2-0.72l-1.2-0.72l-0.72-0.24l-0.48-0.24h-0.48l-3.84-0.72l-1.68-0.24v0.24v0.24h-0.96h-0.48l-0.72-0.24
		h-0.72h-0.72h-1.2h-0.96l-0.96,0.24l-0.96,0.24l-6,3.36l-0.24,0.24l-0.72,0.48l-0.24,0.24l-0.48,0.48l-1.2,1.2l-0.72,1.2
		l-0.48,0.48l-0.48,0.24l-3.84,2.4h-0.24h-0.24h-0.24h-0.48l-0.24-0.24h-0.24l-2.16,0.48v0.24l-0.24,0.24v0.24h-0.24l-0.24,0.24
		h-0.24l-1.92-0.24l-0.48-0.24h-0.24l-3.6-0.72h-1.68l-1.92-0.96l-0.96-0.72l-1.92-0.72l-2.64-0.72l-4.08-0.96h-0.24l-4.32,0.72
		l-3.12,0.48l-1.2,0.24l-5.04,0.96l-1.44,0.24h-0.24l-1.44,0.24l-2.16,0.72l-2.4,0.48l-0.96,0.48l-5.04,3.12l-0.24,0.24l-1.68,1.2
		l-0.72,0.72l-1.44,1.2l-1.68,0.48l-2.16,1.2l-0.48,0.24l-1.92,0.96h-0.48l-0.24,0.48h-0.24l-0.24,0.24l-0.24,0.24l-0.48,0.48
		l-0.24,0.24l-0.24,0.24l-0.24,0.24l-0.96,0.96l-0.96,0.72H119l-1.92,1.2h-0.24h-0.24h-0.24l-0.24,0.24l-0.24-0.24l-2.64,0.24h-0.72
		l-0.48,0.24h-0.24h-0.48l-0.24,0.24h-0.24l-0.24,0.24l-1.2,0.48l-0.72,0.24l-0.72,0.48l-0.48,0.24l-0.24,0.48l-0.24,0.24v0.24
		l-2.88-1.92l-4.08-2.4l-0.72-0.24h-0.24l-0.48-1.68l0.72-0.72l1.2-0.24l1.68-1.2l2.4-1.68l0.48-1.44l0.24-0.96l2.4-0.48l2.64-0.96
		l2.16-0.96l2.4-0.48l2.64-0.48l0.48-0.24l2.16-0.24l1.92-0.48l5.28-1.92l2.16-0.96l1.44-0.72l0.72-0.24l0.24-0.24l0.48-0.24
		l3.36-0.72l8.4-2.16l0.48-2.4l0.48-3.36l-1.2-0.24l-0.72-0.24l-1.68-0.72l-0.24-0.24l-0.24-0.24l-0.72-0.72l1.92-1.68l0.96-0.72
		l1.44-4.32h-0.72l-4.8,0.72l-3.12,0.24l-3.12,0.48l-3.84,0.48l-0.24,0.24h-0.24h-0.24h-2.16h-0.48l-0.48,0.24h-0.48h-1.2
		l-0.72,0.24l-3.12,0.72l-2.64,0.72l-1.68,0.48h-0.48h-0.24l-0.72,0.24h-0.48h-0.24h-1.2h-0.96l-0.48-0.24l-0.24-0.72v-0.48
		l0.72-0.72l0.72,0.24l0.48,0.24v-0.48l-1.2-4.32l-0.24-0.72l-0.24-0.24l-0.48-0.24l-0.48-0.24l-0.24-0.48v-0.72l-0.24-1.2
		l-0.72-1.68l-1.2-1.92l-0.72-0.72l-0.48-0.24l-0.96-0.24v0.24h-0.48l-0.24-0.24l-2.4-0.72v-0.48l-0.72-0.72v-0.96v-0.24l-1.68-2.64
		l-1.2-3.6l-0.72-0.96l-0.24-0.48l-0.48-0.24l-0.24-0.24l-0.96-1.44l-1.2-2.16l-0.24-1.44v-0.72v-0.24l-0.48-0.48l-0.24-0.48h-0.24
		l-1.44-0.72l-0.96-0.72l-1.44-0.48l0.96-4.8l1.44-0.72l0.45-0.36l1.92-2.16l0.27-0.36l0.48-0.48l0.96-0.72l1.2-0.72h0.24l0.48,0.48
		h0.72l4.32-0.72l2.88-0.96l1.2-1.2l0.24-0.48l0.24-0.48v-0.72v-0.96l0.24-0.72L107.95,520.35z"/>
	<path id="Donaustadt" class="st6" d="M602.33,165.76l1.44,0.96l2.88,1.68l1.2,0.72l0.96,0.48l1.2,0.48l5.04,1.2v-0.24l-0.24-1.44
		l-0.24-0.24l0.24-1.2l0.24-1.92V166l0.72-2.16l0.24-0.48l0.24-0.72l0.48-1.2l0.72-1.44l1.2-3.6l0.48-1.68l0.24-0.96v-0.72v-0.72
		l-0.72-2.64l-0.72-2.16l-0.24-0.48v-0.24l0.24-0.96l0.24-1.44v-0.48v-2.16l-0.24-2.16l-0.48-0.24l-0.48-0.24l-0.24-0.48l-0.24-0.96
		l-1.2-6.24l-0.72-7.2v-1.2l-0.24-1.92v-1.68v-0.24l0.24-1.92l0.48-2.4l0.24-1.2l-0.24-0.48v-0.24l-0.24-0.24l0.96,0.24h0.24
		l4.56,0.72h0.72l0.96,0.24h0.48l1.92,0.24l5.76,0.48h0.72l2.4,0.24l4.8,0.24h0.24h0.72l2.64,0.24h0.96l1.44,0.48l-0.48,1.68
		l7.2,2.64l8.4,3.36l3.12,1.68l2.4,1.44l0.48,0.24l0.96,0.48l1.92,0.72l1.2,0.48l1.92,0.72l2.4,0.96l3.12,0.96v0.24l-0.72,2.16
		l0.24,0.24l1.92,1.2l1.2,0.72l0.48,0.24l-1.2,4.32l-0.72,2.4l-1.2,3.6l-0.72,2.16l-1.2,0.48l-1.2,0.96l-0.24,0.24l-1.68,3.36
		l-3.36,6.24l-0.24,0.24l-0.96,2.4l-3.12,8.4l1.2,0.24h0.96l2.4,0.72l0.48,0.48l3.6,2.64l2.4,1.68l2.16,1.2h0.24l0.96,0.48
		l-0.24,0.96l-0.48,1.44l-1.68,6.72l5.04,1.2h0.48l6.72,1.44l0.96,2.16l0.96,2.16l1.2,2.64l2.16,0.96l2.4,0.96l2.64,1.2l3.12,0.72
		l2.4,0.96h0.24l4.08,1.2l1.2,0.24l4.56,0.96l0.96-2.4l2.64-1.2l2.64-1.2l2.4-0.72l3.12-0.72l3.12,0.72l1.2,0.24l1.92,0.24l9.84,2.4
		l-1.44,3.84l-1.44,3.6l-1.92,6l-2.4,8.16l-1.2,3.6l-0.24,1.44l-0.48,1.2v1.2l-0.72,4.32l-0.72,4.8l-0.48,4.56l-0.24,1.68v0.24
		l-0.72,2.4l-0.96,2.64l-0.72,2.64l-0.48,3.12l-0.48,3.36h2.64h1.2h2.64h5.52h2.4l1.44,0.24h1.2l-0.24,3.12l-0.24,1.44l-0.24,2.4
		l3.12,1.44l2.88,0.96l3.6,1.44l-0.96,2.88l-2.16,7.92l-1.2,4.08l-1.2,3.6l-0.96,4.32l-0.96,4.08l-0.24,0.24l-0.48,3.36l-0.72,2.88
		l-0.48,2.88l-0.72,3.36l-0.72,2.88l-0.48,2.88l-0.72,3.36l-0.24,3.12l0.24,1.44l0.24,1.92l-0.24,3.84l-0.48,3.6l-0.72,3.6
		l-0.96,3.6l-1.2,3.36l-1.2,3.6l-1.2,2.64v0.24l-0.96,1.92l-0.48,0.72l-2.4,4.8l-1.2,2.16l-0.48,0.72l-0.72,1.44v0.72l-0.48,0.96
		l-1.44,1.92l-0.48,0.72l-0.96,1.92l-1.2,1.92l-0.48,1.92l-0.48,1.68l-0.24,0.48v1.68v0.24l-1.2,4.08l-0.48,1.68h-0.24l-0.24,0.72
		l0.96,1.92l1.68,2.88l0.72,1.44l1.44,3.36l0.72,2.16l0.72,2.4l1.92,5.28l0.24,0.24l1.44,3.36l0.72,3.12l-1.44,3.12v0.24l-0.72,0.96
		l-0.48,0.96l-0.24,0.24l-1.2,2.16l-1.92,6v0.24l-0.72,3.6l-0.48,6l1.68,0.48l0.24,0.24h0.24l2.16,0.48l1.68,0.72l0.72,0.72
		l0.48,0.48l0.24,0.48l-1.44,3.84l-2.4-1.68l-0.96-0.72l-0.96-0.72l-0.96-0.72l-0.48-0.24l-0.96-0.96l-1.92,10.08l-0.24,1.44
		l-0.24,1.2l-0.24,1.68v1.44l5.52,6.72l0.72,0.72l0.96,0.72l0.96,0.96l0.48,0.48l-2.4-0.48l-0.96-0.24l-2.64-0.96l-2.4-0.72
		l0.48,3.36l4.56,1.68l0.96,0.48l0.96-0.48l0.96-0.96l0.72-0.72l0.96-0.24l3.6,0.72l2.88,1.2v-0.48l-1.44-5.28l-0.48-0.48
		l-0.72-0.48l-2.88-0.48l-0.48-0.24l-0.72-0.96l-0.24-0.24l-0.48-0.72l0.24-0.72v-0.72l1.2-1.2l1.68,0.24l3.12,0.24l0.96-0.24
		l0.72-0.48l0.48-0.72l0.24-1.2l0.72-0.48h3.36l0.72,0.24l3.12,2.16l0.24,0.24l0.48,0.72v0.24l-0.24,1.2l0.72,4.32l0.72,2.16
		l0.48,0.96l0.24,0.96l0.24,0.96v1.2l-0.48,2.64l-0.72,0.48l-1.2,0.48l-1.92-0.24h-0.48l-1.68,0.24h-0.72h-0.24l-0.96-0.72
		l0.24,0.48l0.24,2.16l0.72,1.44l0.24,0.72l1.2,4.32l0.72,4.08l1.92,0.96l0.48,0.48l1.2,1.44l-0.72,4.08l0.24,0.72l0.48,0.48v0.24
		l3.6,3.6l1.92,2.64h0.72h0.96h2.64l1.92,0.96l-1.2-1.44l-2.16-3.12l-0.96-1.2l0.24-0.48l0.24-0.96l0.72-0.24l1.92-0.48h1.44
		l1.92,0.48l0.96,0.48l1.92,2.16l0.48,0.96l0.48,0.48l0.72,1.68v0.24l0.48,0.96l0.24,0.48l1.2,1.2l1.68,2.64l0.96-0.48l0.72-0.48
		l0.72-0.96l0.72-1.68l0.96-1.2l0.96-0.48l2.16-0.96l0.96-0.72l2.88-1.92h0.24l1.44-0.48h1.68l0.96,0.24l0.48,0.24l0.48-0.24
		l0.48-0.48l0.48-0.24h1.2l3.84,1.68l1.92,1.68l0.48,0.48l1.68,1.68V496l1.44,2.64l0.24,1.68l0.48,2.64v1.2l-1.44,3.84l-0.24,0.96
		l-1.44,2.64l-1.2,1.44l-0.24,0.24l-0.72,0.72l-0.48,0.96l1.2,1.92h0.24l0.72,0.48l0.72,0.48l0.96,0.96l1.2,1.68l0.24,0.24
		l0.24,0.72l0.72,0.72l0.96,1.92l0.72,2.16l0.24,2.64l-0.24,1.44v0.24v0.72v1.68l-0.96,13.2v0.72l-0.24,3.6v0.48v4.08l-0.24,2.88
		v1.92l-0.24,3.12v0.48v0.48l-0.24,3.6l-0.24,2.4l-0.48,2.4v0.48l-1.92-0.72l-7.44-2.88l-1.44-0.72l-4.08-1.68l-2.88-1.2h-0.24
		l-0.96-0.48h-0.24l-3.6-1.44l-7.68-2.88l-1.2-0.48l-0.48-0.24l-0.48-0.24l-0.72-0.24l-2.4-0.72h-0.24l-7.2-2.4h-0.48l-0.48-0.24
		l-2.4-0.72l-1.2-0.24l-0.72-0.24l-0.48-0.24l-0.72-0.24l-1.2-0.24l-2.88-0.96l-1.44-0.48l-1.68-0.48l-0.24-0.24l-0.96-0.24
		l-0.96-0.24l-0.48-0.24l-0.72-0.24l-0.96-0.48l-0.72-0.24l-0.24-0.24l-0.48-0.24l-0.48-0.24h-0.24l-0.48-0.24v-0.24h-0.24
		l-0.24-0.24h-0.24l-0.24-0.24l-0.96-0.48l-0.96-0.72l-1.44-0.96l-0.24-0.24l-0.48-0.24v-0.24h-0.24l-0.24-0.24l-0.24-0.24
		l-0.96-0.96l-1.2-1.2l-0.96-0.96l-1.2-1.2l-3.6-3.84l-4.56-4.56l-11.52-11.76l-1.92-2.16h-0.24l-0.24-0.48l-0.48-0.24l-0.72-0.72
		l-0.48-0.48l-0.48-0.24l-0.48-0.48l-1.44-0.96h-0.24l-2.16-1.68l-1.68-1.2l-0.72-0.48l-1.44-0.72l-7.2-4.56l-0.96-0.72l-0.72-0.48
		l-5.52-1.44l-0.24-0.24l-12.96-8.4l-1.68-0.96l-3.36-2.16l-8.16-5.52l-1.68-1.2l-2.16-1.44l-1.68-0.96l-0.48-0.24l2.88-2.88
		l-0.48-0.48l-1.92-1.68l-4.56-3.84l-0.48-0.48l-1.92-1.68l-2.16-1.92l-1.68-1.44l-1.92-1.92l-7.68-6.96l-4.32-4.32l-0.48-0.24
		l-0.24-0.48l-1.68-1.44l-9.6-9.12l-1.92-2.16l-12-11.52l-11.04-10.8l-1.44-1.68l-0.48-0.24l-1.68-1.92l-6.96-6.96l-6-6l-7.2-7.2
		l-5.76-6l-0.72-0.48l-6.48-6.72l-5.76-5.76l-7.2-7.44l-5.52-5.76l-7.44-7.92l-4.8-5.04l-8.16-8.88l-4.32-4.32l-5.52-6.24l-3.36-3.6
		l-2.88-3.12l-10.08-11.28l-2.16-2.16l-1.2-1.44l-3.36-3.84l-0.24-0.48l-1.68-1.92l-0.48-0.24l-3.6-4.08l-2.16-2.88l-1.92-1.92
		l-1.44-1.92l-1.92-2.4l-1.92-2.4l-2.4-2.88l-1.2-1.68l-0.48-0.48l-0.96-1.44l-1.44-1.68l1.2-0.96l8.88-7.2v-0.24l-0.72-0.96
		l-0.72-1.68l-0.24-0.48v-0.24v-0.24v-0.24v-0.24v-0.24v-0.24v-0.24h0.24v-0.24v-0.24h0.24v-0.24h0.24v-0.24h0.24l0.24-0.24h0.24
		h0.24h0.24h0.24h0.24h0.24h0.24l0.24,0.24h0.24h0.24h0.24h0.48h0.24h0.24h0.24v-0.24h0.24h0.24h0.24h0.24h0.24h0.24h0.24l0.72-0.24
		l1.68-0.48l2.16-0.72l0.48-0.24l0.24-0.24h0.24l0.24-0.24h0.24l0.24-0.24h0.24V262h0.24l0.24-0.24l0.24-0.24l0.24-0.24l0.24-0.24
		l0.48-0.24l0.24-0.24l0.24-0.24l0.24-0.24l0.24-0.24l0.48-0.24l1.2-1.44l0.48-0.72l0.48-0.72l1.2-1.92l0.48-0.72l0.48-0.72
		l0.24-0.24l2.88-0.72l6-0.96l1.68-0.24l1.92,0.24h0.24h0.72h0.24h0.24h0.24h0.24h0.24l1.44-0.24l1.92-0.24l0.48-0.24h0.24h0.24
		h0.24h0.24h0.24h0.24l0.96,0.24l0.72,0.24l2.4-0.48l3.36-0.72h0.24l0.24-0.24h0.24v-0.24h0.24v-0.24v-0.24v-3.12v-0.24v-0.48v-2.64
		l0.24-4.56v-0.24l0.24-3.6v-0.24l0.48,0.24l2.16,0.96l0.24,0.24h0.24h0.24l0.24,0.24h0.24l0.48,0.24l0.24-0.48v-0.48l0.48-1.2
		l0.24-0.48v-0.72l0.24-0.24l0.24-1.2l0.72-1.92l1.92-4.08l0.48-0.96l0.96-2.16l4.08-7.92l0.72-1.2h0.24h0.24h0.24h0.24h0.24h0.24
		h0.24h0.24h0.24h0.24h0.24l0.48-0.24h0.48v-0.24h0.24h0.24l0.48-0.24l0.72-0.48l-2.4-5.04l-0.48-0.96l6.24-1.2h0.24h0.24h0.24h0.24
		h0.24l1.68,0.24h0.24l0.72,0.24l2.16,0.24h0.24h0.48l1.92,0.24h4.08l1.2-0.24l0.24,0.24l0.24,0.48l0.24,0.24l0.24,0.24l1.92,2.64
		l2.64,3.6l2.16-4.56l1.2-2.64l1.92-3.84l0.96-0.72l0.72-0.72l21.12-19.2l0.72-0.48l0.24-0.48l3.36-2.88l0.24-0.24l0.48-0.48
		l2.16-1.68l0.48-0.24l0.72-0.48l0.72-0.48l0.72-0.48l0.96-0.72l0.24-0.24l0.48-0.24l0.48-0.48l0.48-0.48l0.24-0.48l0.96-1.2
		l0.72-0.72l2.16-1.92l1.92-0.72h0.24h0.24H602.33L602.33,165.76z"/>
	<path id="Floridsdorf" class="st6" d="M372.43,142.24l4.8,1.2l1.2,0.24l4.8,0.96l0.72,0.24l1.68,0.24l0.72,0.24l2.4,1.2l2.64,1.2
		l1.68,0.96l0.48,0.24h2.16l5.04-1.92l-2.64-0.96l-1.44-1.2l-0.72-1.2l-0.72-0.96v-0.48l-0.72-1.44l-0.24-0.96l-0.72-2.16
		l-0.24-1.44v-1.2l0.24-1.2l0.24-0.96l0.24-0.72l0.24-0.48l0.72-0.48l1.92-0.72l1.2-0.48l1.2-0.48l1.44-0.24l1.2,0.24h0.24h0.72
		l1.68-0.24l0.96-0.24l0.72-0.24l0.72-0.24l1.92-0.24h1.68h1.68h0.96l0.72-0.24l0.72-0.24h0.24v-0.24l0.48-0.48l0.24-0.48l0.72-1.92
		l0.48-1.2l0.24-0.96v-0.48v-2.16v-0.72l-0.24-2.16l-0.24-0.48l-0.72-1.92l-0.24-0.48l-0.48-1.2l-0.24-0.24l-1.92-3.6l-0.48-0.72
		l-1.2-1.68l-0.24-0.24l-0.24-0.24l-0.48-0.48l0.96-1.68l0.72-1.2l2.4-4.8l1.92-4.32l0.48-0.96l0.72-2.16l0.72-1.92l0.24-0.48V88
		l2.16,0.24h0.24l0.24,0.24h0.48h0.24l1.2,0.48l0.96,0.24l0.24,0.24h0.48l2.64,0.72h0.24h0.48h0.48l2.4-1.44l-0.48-0.24v-0.24
		L430.27,88l-1.44-0.96l-1.44-0.72l-0.48-0.24l-0.48-0.24l0.24-0.72v-0.24l0.24-0.72l0.24-0.48l0.24-0.24V83.2l0.24-0.24v-1.2
		l-0.48-0.48l-2.4-2.88l0.24-0.24v-0.24v-0.24l0.24-0.48l0.72-1.68l0.48-2.64l-0.72-4.08l-0.96-2.64l-0.72-1.44V60.4l-0.96-0.24
		l-1.44-0.24l-1.68-3.6v-5.04l0.24-1.92l1.92-5.28h0.24l3.6-3.84l1.92-1.92l0.48-0.48l0.24-0.24l0.24-0.48h0.24l0.96-0.24l0.96-0.24
		l2.16,0.48l3.84,1.2l1.44-3.6l-2.4-0.24v-1.92l4.8,0.48v-0.96l-0.24-1.68l-0.24-1.68l1.44,0.24h1.68h0.24l1.2-0.24h0.24l0.72-0.24
		l0.96-0.24h1.44l0.24,2.88v2.4v0.24v0.96v0.72l-0.24,0.48l-1.2-0.24l-0.72,2.16l5.52,2.88l0.72,0.48l1.68,0.48l2.4,0.96l2.64,0.96
		l3.36,1.44h0.48l0.48-1.2l0.24-0.96l0.48-1.44l0.96-2.64l0.24-0.72l0.24-0.48l3.36-1.44l8.16-3.36l0.24-0.24l1.68-0.48l3.36-1.44
		l1.44-0.48l6.24-1.92l1.68-0.24l1.68-0.24l2.64,0.24h1.44l2.16,0.48l4.08,1.2l1.68,0.72l1.92,1.2l1.44,0.96l0.24,0.24l4.8,3.12
		h0.24l3.6,2.16l2.88,1.68l1.2,0.72l2.16,1.2l1.92,0.96l2.64,1.2l0.48,0.24l1.68,0.72l0.48,1.68l0.48,2.88v2.4l-0.48,2.88
		l-0.24,4.56l0.24,7.2l1.2,2.16l0.96,3.36l0.24,1.44l0.48,1.68l1.44,7.92v0.72v3.36v2.64v0.96V94v3.84l0.24,7.2v3.6v2.64v0.96v2.16
		v2.88v0.24l3.36,2.16l1.92,1.2l2.16,1.68l1.44,1.2l3.6,2.64l4.56,3.12l1.92,1.2l3.12,2.16l0.72,0.72l0.96,0.72l1.44,1.2l1.44,1.2
		l0.96,0.72l2.4,1.44l0.24,0.24l0.72,0.24l1.44,1.2l2.64,1.68l0.24,0.24l1.92,1.2l1.92,1.2l2.4,2.16l3.6,2.88l4.08,3.12l1.44,1.2
		l0.48,0.24l0.24,0.24l0.72,0.72l2.88,1.92l4.08,2.64l2.4,2.16l0.24,0.48l4.08,1.68v0.96l0.72,0.48h-0.48h-0.24h-0.24l-1.92,0.72
		l-2.16,1.92l-0.72,0.72l-0.96,1.2l-0.24,0.48l-0.48,0.48l-0.48,0.48l-0.48,0.24l-0.24,0.24l-0.96,0.72l-0.72,0.48l-0.72,0.48
		l-0.72,0.48l-0.48,0.24l-2.16,1.68l-0.48,0.48l-0.24,0.24l-3.36,2.88l-0.24,0.48l-0.72,0.48l-21.12,19.2l-0.72,0.72l-0.96,0.72
		l-1.92,3.84l-1.2,2.64l-2.16,4.56l-2.64-3.6l-1.92-2.64l-0.24-0.24l-0.24-0.24l-0.24-0.48l-0.24-0.24l-1.2,0.24h-4.08l-1.92-0.24
		h-0.48h-0.24l-2.16-0.24l-0.72-0.24h-0.24l-1.68-0.24h-0.24h-0.24h-0.24h-0.24h-0.24l-6.24,1.2l0.48,0.96l2.4,5.04l-0.72,0.48
		l-0.48,0.24h-0.24h-0.24v0.24h-0.48l-0.48,0.24h-0.24h-0.24h-0.24h-0.24h-0.24h-0.24h-0.24h-0.24h-0.24h-0.24h-0.24l-0.72,1.2
		l-4.08,7.92l-0.96,2.16l-0.48,0.96l-1.92,4.08l-0.72,1.92l-0.24,1.2l-0.24,0.24v0.72l-0.24,0.48l-0.48,1.2v0.48l-0.24,0.48
		l-0.48-0.24h-0.24l-0.24-0.24h-0.24h-0.24l-0.24-0.24l-2.16-0.96l-0.48-0.24v0.24l-0.24,3.6V238l-0.24,4.56v2.64v0.48v0.24v3.12
		v0.24v0.24h-0.24v0.24h-0.24l-0.24,0.24h-0.24l-3.36,0.72l-2.4,0.48l-0.72-0.24l-0.96-0.24h-0.24h-0.24h-0.24h-0.24h-0.24h-0.24
		l-0.48,0.24l-1.92,0.24l-1.44,0.24h-0.24h-0.24h-0.24h-0.24h-0.24h-0.72h-0.24l-1.92-0.24l-1.68,0.24l-6,0.96l-2.88,0.72
		l-0.24,0.24l-0.48,0.72l-0.48,0.72l-1.2,1.92l-0.48,0.72l-0.48,0.72l-1.2,1.44l-0.48,0.24l-0.24,0.24l-0.24,0.24l-0.24,0.24
		l-0.24,0.24l-0.48,0.24l-0.24,0.24l-0.24,0.24l-0.24,0.24l-0.24,0.24h-0.24v0.24h-0.24l-0.24,0.24h-0.24l-0.24,0.24h-0.24
		l-0.24,0.24l-0.48,0.24l-2.16,0.72l-1.68,0.48l-0.72,0.24h-0.24h-0.24h-0.24h-0.24h-0.24h-0.24h-0.24v0.24h-0.24h-0.24h-0.24h-0.48
		h-0.24h-0.24h-0.24l-0.24-0.24h-0.24h-0.24h-0.24h-0.24h-0.24h-0.24h-0.24l-0.24,0.24h-0.24v0.24h-0.24v0.24h-0.24v0.24v0.24h-0.24
		v0.24v0.24v0.24v0.24v0.24v0.24v0.24l0.24,0.48l0.72,1.68l0.72,0.96v0.24l-8.88,7.2l-1.2,0.96l-1.44-1.92l-1.44-1.68l-2.64-3.36
		v-0.24l-4.8-6.48l-0.24-0.48l-1.68-2.16l-2.64-3.84l-0.24-0.24v-0.24l-0.96-1.2l-2.4-3.6l-1.2-1.68l-2.4-3.6l-1.92-2.64l-0.24-0.24
		l-1.2-1.92l-5.04-7.68l-0.24-0.48l-6-9.84l-0.72-1.2l-10.08-17.76l-1.92-3.36l-0.24-0.24l-0.24-0.48V202l-1.2-1.92l-17.52-33.12
		L378.67,154l-0.24-0.48l-0.24-0.48l-1.92-3.12l-2.16-4.56L372.43,142.24z"/>
	<path id="Brigittenau" class="st6" d="M404.11,202.48l0.24,0.48l0.24,0.24l1.92,3.36l10.08,17.76l0.72,1.2l6,9.84l0.24,0.48
		l5.04,7.68l1.2,1.92l0.24,0.24l1.92,2.64l2.4,3.6l1.2,1.68l2.4,3.6l0.96,1.2v0.24l0.24,0.24l2.64,3.84l1.68,2.16l0.24,0.48
		l4.8,6.48v0.24l2.64,3.36l1.44,1.68l1.44,1.92l-1.92,1.44l-2.16,1.68l-1.68,1.2l0.24,0.24l-5.04,3.84l-0.24,0.24l-8.88,6.96
		l-0.48,0.24l-0.72,0.48l-1.2,1.2h0.24l0.96,1.44l1.2,1.44l0.48,3.36l-0.48,0.96l-6.24,5.28l-2.64,1.2h-0.24h-0.24h-0.24V310
		l-0.24-0.72l-3.12-5.76l-1.68-1.2l-2.16-1.2l-3.36-2.4l-6.24,3.12l-1.92,0.96l-1.68,0.72l-0.72,0.24l-3.12,4.56l-0.24,0.24v1.2
		l-1.2,0.48l-2.4,0.72l-2.16,0.72v-0.24v-0.24h-0.24v-0.24v-0.24l-0.24-0.24l-0.48-1.2l-0.24-0.24v-0.24h-0.24v-0.24h-0.24v-0.24
		l-0.24-0.24l-0.24-0.48l-1.44-1.44h-0.24l-0.96-0.96l-0.96-1.2v-0.24h-0.24v-0.24h-0.24v-0.24l-0.24-0.24v-0.24h-0.24v-0.24
		l-0.24-0.24v-0.24h-0.24v-0.24l-0.24-0.24v-0.24h-0.24v-0.24v-0.24h-0.24v-0.24v-0.24h-0.24v-0.24v-0.24h-0.24v-0.24v-0.24h-0.24
		v-0.24v-0.24v-0.24h-0.24v-0.24l-2.16-6.48h-0.24v-0.24v-0.24v-0.24v-0.24h-0.24v-0.24v-0.24v-0.24l-0.24-0.24v-0.24v-0.24v-0.24
		l-0.24-0.24v-0.24v-0.24v-0.24v-0.24v-0.24h-0.24v-0.24v-0.24v-0.24v-0.24v-0.24v-0.24v-0.24V286v-0.24v-0.24v-0.24v-0.24
		l0.24-0.24v-0.24v-0.24v-0.24v-0.24v-0.24v-0.24v-0.24v-0.24h0.24v-0.24v-0.24v-0.24v-0.24v-0.24v-0.24l0.24-0.24v-0.24v-0.24
		v-0.24v-0.24l0.24-0.24v-0.24v-0.24v-0.24l0.24-0.48l0.24-0.72v-0.72l0.72-2.16l0.72-1.92l0.48-1.44l0.48-0.96l0.48-1.2l0.24-0.72
		l0.96-2.16l1.44-2.88l2.64-5.52h0.24v-0.24v-0.24l0.24-0.24v-0.24l0.24-0.24l0.24-0.48l0.48-0.48l0.24-0.24v-0.24l0.24-0.48
		l0.48-0.72l0.24-0.24l0.24-0.24l2.16-3.36l0.24-0.48l0.48-0.72l0.24-0.48l0.24-0.48l0.24-0.24l0.24-0.48l1.44-2.64l0.48-0.72
		l0.24-0.48l0.24-0.48v-0.48l0.48-0.48v-0.48l0.24-0.48l0.24-0.72l0.24-0.48l0.24-0.48v-0.48l0.24-0.48v-0.48l0.24-0.48v-0.48v-0.24
		l0.24-0.48v-0.48v-0.48v-0.48v-0.48v-0.72l-0.24-0.24v-0.72l-0.24-0.96l-0.24-1.2v-0.24l-0.24-0.24l-0.72-1.92v-0.24l-0.72-1.92
		l-0.24-0.48l-2.16-5.28l-0.24-1.2l-0.48-0.96v-0.48l-0.24-1.44l0.48-0.24V214v-0.24v-0.24l-0.24-1.2h-0.24v-0.24h-0.24l-0.96-4.8
		v-0.96L404.11,202.48z"/>
	<path id="Döbling" class="st6" d="M235.88,215.21l0.72-1.92l0.72-2.16l1.68-1.68l2.88-2.64l1.68-1.68h0.48l2.16-0.72l1.68-0.48
		h0.72l1.2-1.68l2.64-3.6v-1.44l-1.68-1.92l-2.64-3.36l-0.96-1.2l-2.4,0.24l-1.68,0.72l-0.96,0.24l-3.6-0.24l-0.72-0.24l-0.72-0.72
		l-0.24-1.2l-0.24-0.96l0.24-0.48l0.48-0.24l0.72-0.48l0.72-0.48l0.72-0.72l0.72-0.72l0.24-0.48l0.48-2.16l0.48-1.2l0.48-0.96
		l0.24-0.48l0.48-0.48l0.72-0.24l2.88-1.2l2.64-1.2l4.08-1.92l0.48-0.24l1.2,0.24l4.08,0.24l3.12-1.2l0.72-1.44l0.96-0.72l1.2-0.48
		l0.48,0.24l0.96,0.24h0.96l-0.48,0.96l-0.24,0.48l6.24,2.64l1.92,0.24l0.72-0.24l1.44-0.96l0.48-0.24l0.72-0.48l2.4-0.24l1.2-0.96
		l1.2-0.96l1.68-1.44l2.16-0.96H287h1.2l4.08-0.24l0.96-0.96l0.24-0.48l0.96-1.2l0.96-1.92l3.12-4.32l0.48-0.48l2.4-1.44l2.64-1.44
		h3.12l0.48,0.24h0.48l0.72,0.24l0.48,0.24l0.48,0.24v0.24l0.48,0.24l0.24,0.24l0.96,0.24l0.96,0.24h0.72v0.24l4.8,0.72h0.48
		l1.2-0.24h0.48l2.4-1.68l0.24-0.72v-1.44l0.24-0.96v-0.48l2.4-4.32l0.48-0.72l0.24-0.24l0.24-0.24l1.92-0.72h0.48h0.72h0.96
		l4.56-1.92l0.72-0.48l9.84-6.24l3.84-2.4l0.72-0.48l1.44-1.44l-2.16-3.12l-1.44-1.92l-0.48-0.72l-1.92-2.16l-1.68-1.92l13.2-4.32
		l3.36,6.24l0.72,1.2l6.48,12.24l4.8,0.96l1.68,3.12l2.16,4.56l1.92,3.12l0.24,0.48l0.24,0.48l6.72,12.96l17.52,33.12l1.2,1.92v0.48
		l-7.92,3.84v0.96l0.96,4.8h0.24v0.24h0.24l0.24,1.2v0.24v0.24v2.4l-0.48,0.24l0.24,1.44v0.48l0.48,0.96l0.24,1.2l2.16,5.28
		l0.24,0.48l0.72,1.92v0.24l0.72,1.92l0.24,0.24v0.24l0.24,1.2l0.24,0.96v0.72l0.24,0.24v0.72v0.48v0.48v0.48v0.48l-0.24,0.48v0.24
		v0.48l-0.24,0.48v0.48l-0.24,0.48v0.48l-0.24,0.48l-0.24,0.48l-0.24,0.72l-0.24,0.48v0.48l-0.48,0.48v0.48l-0.24,0.48l-0.24,0.48
		l-0.48,0.72l-1.44,2.64l-0.24,0.48l-0.24,0.24l-0.24,0.48l-0.24,0.48l-0.48,0.72l-0.24,0.48l-2.16,3.36l-0.24,0.24l-0.24,0.24
		l-0.48,0.72l-0.24,0.48v0.24l-0.24,0.24l-0.48,0.48l-0.24,0.48l-0.24,0.24v0.24l-0.24,0.24v0.24v0.24h-0.24l-2.64,5.52l-1.44,2.88
		l-0.96,2.16l-0.24,0.72l-0.48,1.2l-0.48,0.96l-0.48,1.44l-0.72,1.92l-0.72,2.16v0.72l-0.24,0.72l-0.24,0.48l-4.8,0.24h-3.6h-0.24
		h-0.24v0.24h-0.24h-0.24v0.24v0.24h-0.24v0.24l-0.72,4.32l-0.48,2.4v0.24v0.24h-0.24v0.72l-0.48,0.72l-0.24,0.96h-0.24v0.24
		l-0.24,0.24v0.24h-0.24v0.24h-0.24v0.24h-0.24v0.24h-0.24v0.24h-0.24h-0.24v0.24l-0.72-0.72h-0.24l-0.48,0.48l-0.96-0.48
		l-1.92,0.48l-0.24,0.24l-3.36-0.24v-0.24l0.24-1.44l0.24-1.44l0.24-0.48v-1.44l-2.88-0.24v0.24l-0.24,1.44l-0.24,0.24l-2.64-0.48
		h-0.24l-0.24,0.24l-0.24,0.24h-0.48l-4.8-1.2l-4.56-0.96h-5.52h-3.12v-0.24v-1.2v-7.92h-6.48h-2.88h-0.72h-0.96H323h-0.48h-0.24
		l-0.48-0.24l-3.36-1.68l-5.76-3.12l-3.12-1.68l-0.72-0.24l-0.96-0.48l-0.72-0.24h-0.72l-0.48-0.24h-0.72l-0.96-0.24h-0.48
		l-0.24-0.24h-0.24h-0.24l-0.24-0.24l-0.24-0.24h-0.24l0.24-0.24v-0.24h0.24l0.24-0.24h0.24l0.24-0.24h0.24l-0.24-1.44l-6.24-2.4
		l-0.24-0.24h-0.24v0.24h-0.24h-0.24v0.24h-0.24v0.24h-0.24l-3.36-1.68l-3.6-1.68l-1.92-0.96l-0.48-0.24l-0.96-0.72h-0.24v-0.24
		h-0.24v-0.24l-2.88-2.64l-0.24-0.48l-0.24-0.24v-0.24l0.24-0.96v-0.24l-1.92-0.48l-1.44-0.24h-0.24l0.24-0.96v-0.72v-0.72v-0.48
		l0.24-0.72v-0.48v-0.24h-0.24l-0.24-0.24h-0.24l-2.88-1.92l-1.2-0.72l-0.96-0.48l-0.72-0.24l-0.72-0.24l-0.48-0.24l-1.44-0.48
		l-0.48-0.24h-0.72l-5.04-0.48l-2.4-0.48l-3.36-0.48h-0.48l-1.68-0.72l-0.24-0.24l-1.68-0.48l-3.84-1.44l-2.88-0.72h-0.24h-0.24
		l-0.24-0.24h-0.48h-0.24h-1.2l-0.24-0.24l-0.96-0.24l-1.44-0.96l-1.68-0.24l-0.24-0.96v-0.24v-0.24v-0.24v-0.48v-0.24v-0.48
		l-0.24-0.48v-0.24v-0.24v-0.24l-0.24-0.72v-0.24v-0.24l-0.24-0.24v-0.24l-0.24-0.24v-0.24l-0.48,0.24l-1.2-1.68l-0.48-1.92v-0.96
		l-0.96-4.08l-0.24-0.72l-0.24-2.4v-0.24l0.24-0.72v-0.72l0.24-0.96l0.24-0.24V215.21L235.88,215.21z"/>
	<path id="Währing" class="st6" d="M241.64,236.57l1.44,0.96l0.96,0.24l0.24,0.24h1.2h0.24h0.48l0.24,0.24h0.24h0.24l2.88,0.72
		l3.84,1.44l1.68,0.48l0.24,0.24l1.68,0.72h0.48l3.36,0.48l2.4,0.48l5.04,0.48h0.72l0.48,0.24l1.44,0.48l0.48,0.24l0.72,0.24
		l0.72,0.24l0.96,0.48l1.2,0.72l2.88,1.92h0.24l0.24,0.24h0.24v0.24v0.48l-0.24,0.72v0.48v0.72v0.72l-0.24,0.96h0.24l1.44,0.24
		l1.92,0.48v0.24l-0.24,0.96v0.24l0.24,0.24l0.24,0.48l2.88,2.64v0.24h0.24v0.24h0.24l0.96,0.72l0.48,0.24l1.92,0.96l3.6,1.68
		l3.36,1.68h0.24v-0.24h0.24v-0.24h0.24h0.24v-0.24h0.24l0.24,0.24l6.24,2.4l0.24,1.44h-0.24l-0.24,0.24h-0.24l-0.24,0.24h-0.24
		v0.24l-0.24,0.24h0.24l0.24,0.24l0.24,0.24h0.24h0.24l0.24,0.24h0.48l0.96,0.24h0.72l0.48,0.24h0.72l0.72,0.24l0.96,0.48l0.72,0.24
		l3.12,1.68l5.76,3.12l3.36,1.68l0.48,0.24h0.24H323h3.12h0.96h0.72h2.88h6.48v7.92v1.2v0.24h3.12h5.52l4.56,0.96l4.8,1.2h0.48
		l0.24-0.24l0.24-0.24h0.24l2.64,0.48l0.24-0.24l0.24-1.44v-0.24l2.88,0.24v1.44l-0.24,0.48l-0.24,1.44l-0.24,1.44v0.24l3.36,0.24
		l0.24-0.24l1.92-0.48l0.96,0.48h-0.24l-0.72,0.72l-0.24,0.24h-0.24l-0.24,0.24l-0.48,0.24l-0.96,0.48l-1.44,1.2h-0.24v0.24
		l-0.48,0.48h-0.24v0.24l-0.48,0.48v0.24l-0.24,0.24v0.24v0.24h-0.24v0.24v0.24l-0.24,0.48v0.72l-0.96,6.72l-0.96,5.76l-0.24,2.88
		l-0.24,0.48v0.24v0.48l-0.24,0.24l-0.24,0.48v0.24l-0.24,0.48l-0.24,0.24l-0.24,0.24l-0.24,0.24l-0.24,0.24h-0.24v0.24h-0.24
		l-0.24,0.24h-0.24l-0.24,0.24h-0.24l-0.24,0.24v-0.24h-0.24v-0.24h-0.24l-6,2.4l-0.24,0.24l-0.48,0.48v0.24l-2.4,9.12h0.48v0.24
		l-0.24,0.24l-0.24,0.96v0.24v0.24l-0.24,0.24l-0.24,1.2l-0.24,0.48l-0.96-0.24l-5.04-1.2h-0.24h0.24l0.24-1.68l1.2-4.08l-1.44-0.48
		l-5.04-1.44l-0.96-2.16v-0.24l0.96-1.68l0.96-1.92l-0.24-1.2l-8.88-6.72l-1.92-0.72l-4.8-3.12v-0.72v-0.72l0.24-0.48l-2.4-1.92
		v0.24l-1.2,1.2l-0.24,0.24l0.24,0.24l-0.24,0.24v0.24l-0.24,0.24l-0.48,0.24l-0.48,0.24l-0.96,0.48h-0.24h-0.24l-0.48,0.24
		l-3.6-0.48l-1.68-0.72v-0.24l1.2-3.6l-0.48-0.24l-1.92-0.48h-0.48l0.24-0.24v-0.72l0.24-0.48l0.24-0.96l-1.92-0.24l-2.64-0.72
		l-5.04-1.2l-1.2-1.44l0.24-1.68l0.24-0.48v-0.72l-1.92-0.96v-0.96v-1.2h-0.24h-0.24v0.24h-0.24h-0.24l-1.2,0.24l-1.2,0.24h-0.24
		h-0.24l-0.24,0.24h-0.24h-0.24h-0.24l-0.24,0.24h-0.24h-0.24h-0.24h-0.24h-0.24h-1.44l-0.48-0.24h-0.48l-1.44-0.48l-0.72-0.24
		h-0.48l-0.96-0.48l-0.48-0.24l-0.24-0.24H281l-0.24-0.48l-0.24-0.24l-0.24-0.24l-0.48-0.48h-0.48l-0.72-0.48l-0.72-0.24l-2.4-0.96
		l-6.72-3.36h-0.24v-0.48l-0.24-0.48v-0.96l-0.24-1.92v-0.24h-1.68l-1.2-1.44l-0.48-0.72l-2.4-1.44l-1.44-0.24l-2.88-0.24
		l-0.24,0.24l-0.24,0.72l-0.48,0.72h-0.24v0.24l-2.64,1.2l-1.68,0.48l0.24-0.72l0.24-2.64v-0.48v-2.64l-0.24-2.16l-4.8-0.24
		l-1.68,0.24l-1.2,0.24h-0.24h-0.24h-0.48l-1.92,0.24l-4.08-0.96l-0.48-0.24l-2.4-0.48l-0.24-0.24l-2.16-1.44h-0.24l0.24-0.96
		l0.48-0.72l0.72-0.72l1.44-0.72l3.12-1.2l0.72-0.24l1.44-0.48h0.24h0.72h0.72l1.2-0.48l-0.24-0.96v-0.24v-0.72v-0.48h0.24
		l0.96-0.24h0.24v-0.24l0.48-0.24l1.2-1.68l0.24-1.2h0.96l0.24,0.24l0.72,0.48l2.16-0.48l1.44-0.72l-1.2-3.36l-2.16,0.48h-0.96h-6
		l-1.68-0.24h-1.68l-1.44,0.24l-0.72,0.24h-1.68h-0.72l-1.44-0.24l-2.4-0.48l-0.24-4.08v-0.24v-0.72l0.24-0.48l1.2-1.2l1.68-1.2
		l1.68-1.2h0.24l2.16-1.2v-0.24l-0.24-0.24l0.72-1.2l1.2-0.48l0.24-0.24l0.96-0.48l0.72-0.24l0.24-0.24v-0.24h0.24l0.24-0.24
		L241.64,236.57z"/>
	<path id="Hernals" class="st6" d="M203.96,274.73l-0.48,0.72l-0.48,0.48l-0.24,0.24v0.24l-0.48,0.24h-0.24h-0.72l-1.68-0.72
		l-5.52-2.64l-2.4-1.2l-2.4-0.96l-0.48-0.24l-3.36-1.44l-4.32-0.72h-1.2l-0.24-2.88v-0.96l0.71,0.25l0.25-0.97v-0.24l-0.24-3.36
		l1.2-1.92l1.44-3.6l0.24-2.64l0.48-1.2l0.24-0.48l0.24,0.24h0.48l1.68,0.72l1.92,0.72l1.92-1.44l0.72-0.48l2.16-2.16l2.88-2.16
		v-0.24l0.48-0.48l0.24-1.2l-0.48-0.72l-0.72-1.68v-0.48l3.6-2.4l3.12-2.16l2.4-1.68l1.92-1.2v-0.24l0.48-2.16v-0.48l-0.96-1.44
		l-0.48-0.72l-0.72-0.96l-0.48-0.24h-0.96h-2.64l-1.68-0.72l-1.2-0.48h-0.24H197l-2.4-0.24l-0.24-1.2l1.68-0.24h0.48h2.4l0.96,0.24
		h0.48l3.12,0.24l2.4-0.96l0.96-0.48l0.24-0.24l1.2-0.96l1.92-1.2l0.96-0.48l1.2-0.48l2.16-0.96l2.16-0.48l3.36,0.24H221v0.24
		l0.96,0.24l0.96,0.24h1.2l1.2-0.24l2.16-1.44l1.92-1.2l2.16-0.24l2.64-0.72l0.24-0.24l0.72-0.48l0.72-0.24v0.48l-0.24,0.24
		l-0.24,0.96v0.72l-0.24,0.72v0.24l0.24,2.4l0.24,0.72l0.96,4.08v0.96l0.48,1.92l1.2,1.68l0.48-0.24v0.24l0.24,0.24v0.24l0.24,0.24
		v0.24v0.24l0.24,0.72v0.24v0.24v0.24l0.24,0.48v0.48v0.24v0.48v0.24v0.24v0.24l0.24,0.96l1.68,0.24l-0.24,0.72l-0.24,0.24h-0.24
		v0.24l-0.24,0.24l-0.72,0.24l-0.96,0.48l-0.24,0.24l-1.2,0.48l-0.72,1.2l0.24,0.24v0.24l-2.16,1.2h-0.24l-1.68,1.2l-1.68,1.2
		l-1.2,1.2l-0.24,0.48v0.72v0.24l0.24,4.08l2.4,0.48l1.44,0.24h0.72h1.68l0.72-0.24l1.44-0.24h1.68l1.68,0.24h6h0.96l2.16-0.48
		l1.2,3.36l-1.44,0.72l-2.16,0.48l-0.72-0.48l-0.24-0.24h-0.96l-0.24,1.2l-1.2,1.68l-0.48,0.24v0.24h-0.24l-0.96,0.24h-0.24v0.48
		v0.72v0.24l0.24,0.96l-1.2,0.48h-0.72h-0.72h-0.24l-1.44,0.48l-0.72,0.24l-3.12,1.2l-1.44,0.72l-0.72,0.72l-0.48,0.72l-0.24,0.96
		h0.24l2.16,1.44l0.24,0.24l2.4,0.48l0.48,0.24l4.08,0.96l1.92-0.24h0.48h0.24H245l1.2-0.24l1.68-0.24l4.8,0.24l0.24,2.16v2.64v0.48
		l-0.24,2.64l-0.24,0.72l1.68-0.48l2.64-1.2v-0.24H257l0.48-0.72l0.24-0.72l0.24-0.24l2.88,0.24l1.44,0.24l2.4,1.44l0.48,0.72
		l1.2,1.44h1.68v0.24l0.24,1.92v0.96l0.24,0.48v0.48h0.24l6.72,3.36l2.4,0.96l0.72,0.24l0.72,0.48h0.48l0.48,0.48l0.24,0.24
		l0.24,0.24l0.24,0.48h0.24l0.24,0.24l0.48,0.24l0.96,0.48h0.48l0.72,0.24l1.44,0.48h0.48l0.48,0.24h1.44h0.24h0.24h0.24h0.24h0.24
		l0.24-0.24h0.24h0.24h0.24l0.24-0.24h0.24h0.24l1.2-0.24l1.2-0.24h0.24h0.24v-0.24h0.24h0.24v1.2v0.96l1.92,0.96v0.72l-0.24,0.48
		l-0.24,1.68l1.2,1.44l5.04,1.2l2.64,0.72l1.92,0.24l-0.24,0.96l-0.24,0.48v0.72l-0.24,0.24h0.48l1.92,0.48l0.48,0.24l-1.2,3.6v0.24
		l1.68,0.72l3.6,0.48l0.48-0.24h0.24h0.24l0.96-0.48l0.48-0.24l0.48-0.24l0.24-0.24v-0.24l0.24-0.24l-0.24-0.24l0.24-0.24l1.2-1.2
		v-0.24l2.4,1.92l-0.24,0.48v0.72v0.72l4.8,3.12l1.92,0.72l8.88,6.72l0.24,1.2l-0.96,1.92l-0.96,1.68v0.24l0.96,2.16l5.04,1.44
		l1.44,0.48l-1.2,4.08l-0.24,1.68h-0.24h0.24l5.04,1.2l0.96,0.24l-2.16,6l-0.24,0.24l-1.92,5.52l-0.48,1.2l-0.24,0.96l-0.24,0.48
		v0.24l-1.68-0.24v-0.24l0.24-3.36v-4.56v-0.24l-0.24,0.24l-3.84,0.72l-0.48,0.24l-3.84,0.72h-0.48l-3.12,0.48l-0.72,0.24h-0.24
		h-0.24h-0.24h-0.24v0.24h-0.24h-0.24h-0.24h-0.24l-0.96,0.24l-3.84,1.2l-2.88,0.72l-2.4,0.72h-0.24v-0.24l-0.24-2.16l-0.24-1.44
		v-0.24v-0.48l-0.24-1.44v-0.24h-2.88h-0.48l-2.16,0.24h-0.24v-0.24l0.48-2.16l-3.12-0.24h-0.24v-0.24v-0.48l0.72-2.4v-0.24
		l-2.16-0.24l-0.48-0.24l2.16-8.88l-4.32-2.4l-4.08-1.92l-0.72-0.48l-6.72-3.6l-0.96,1.68l-0.24,0.48l-4.8-0.96l-0.96-0.24
		l-0.24-0.24l-1.2-0.72l-0.24,0.48v0.24v0.24v0.24h-0.24l0.24,0.24v0.24v0.24l-2.64,0.48h-0.24v-0.24l-0.48-1.44v-0.48l-0.72-3.12
		v-0.24h-0.24h-0.24l-0.24-0.24H275h-0.24h-0.24h-0.24v-0.24h-0.48h-0.24h-0.24h-0.24v-0.24h-0.24h-0.24h-0.24h-0.24h-0.24h-0.24
		h-0.24h-0.24h-0.24h-0.24h-0.24h-0.24h-0.24h-0.24h-0.24h-0.24H269v0.24h-0.24v0.24H269l0.24,0.48v0.24h0.24v0.24v0.24v0.24v0.24
		v0.24v0.72l-0.24,0.24l-1.44,0.24l-1.2,0.24h-0.24h-0.24v-0.24l-0.24-0.24l-0.72-0.24l-0.72-0.48h-0.24l-0.24-0.24l-5.04-2.16
		h-0.24l-1.92,0.24h-0.48h-0.24h-0.24h-0.24l-0.96,0.48h-0.48l-6,2.16l-0.72,0.24l-0.24,0.24h-0.24l-0.24,0.24l-0.72,0.72
		l-0.24,0.24l-0.24,0.24l-0.24,0.24l-0.72,0.72l-2.64,2.16l-0.24,0.24l-0.96,0.48h-0.24h-0.48l-2.64,0.24h-0.48l0.48-0.96l0.24-0.48
		l0.48-1.44l0.24-0.24l0.24-2.16l-0.24-2.64l-2.16,0.72l-1.2,0.48h-0.24l-0.24,0.24l-0.48,0.24h-0.24l-1.44-0.72l-0.72-0.24
		l-0.48-0.48l-0.72-0.48l-0.72-0.72v-0.24l-0.48-0.96l-2.16-1.68l-1.2-0.96l-2.88-1.44l-1.44-0.48l-0.24-0.24H221h-0.24h-0.96h-0.24
		h-0.24l-0.96-0.24l-0.48-0.72h-0.24l-5.76,0.48h-1.68h-0.72h-0.72l-1.68,0.48l-1.44,0.24h-1.2h-0.24h-1.44l-2.64,0.24h-0.24h-0.72
		l-3.12,1.68l-5.28,2.64l-1.68,0.72l-0.48,0.24l-0.24,0.24l-1.68-0.48l-3.36-0.24h-0.24l-2.64,3.12v0.24v0.48l-0.48,0.72v0.24
		l-1.92,1.68l-0.24,0.24l-1.2,0.96l-1.92,1.44l-0.24,0.48l-0.24,0.48l-0.72,1.2l-1.44,1.68l-0.48,0.72h-0.96h-1.2l-0.48,0.24
		l-0.24,0.24h-0.24l-0.48,0.72l-0.24,0.48l-0.96,0.96l-0.72-0.24l2.88-4.08l4.8-7.44l2.4-5.52l0.24-0.72l0.24-0.96l0.48-1.92
		l0.24-0.48l0.24-1.44v-0.24v-0.24v-1.68v-0.24v-1.2l0.24-0.24l0.48-1.68l0.24-0.24l0.48-1.2l0.24-0.24l0.24-0.48l0.24-0.24
		l0.48-0.72l0.24-0.24l2.4-1.44l1.44-0.96l0.48-0.24l1.44-0.72l0.48-0.24l0.24-0.24l2.16-1.44l0.24-0.48l1.92-1.68l0.48-0.48
		l0.24-0.48l0.72-1.2v-0.24l0.48-0.72v-0.24l0.96-0.72l0.48-0.48l1.44-1.2l4.56-3.84l0.24-0.24l0.24-0.24l1.44-1.92l2.01-2.68
		L203.96,274.73z"/>
	<path id="Ottakring" class="st6" d="M174.2,322.49l0.24-0.48l0.24-0.48l1.92-1.44l1.2-0.96l0.24-0.24l1.92-1.68v-0.24l0.48-0.72
		v-0.48v-0.24l2.64-3.12h0.24l3.36,0.24l1.68,0.48l0.24-0.24l0.48-0.24l1.68-0.72l5.28-2.64l3.12-1.68h0.72h0.24l2.64-0.24h1.44
		h0.24h1.2l1.44-0.24l1.68-0.48h0.72h0.72h1.68l5.76-0.48h0.24l0.48,0.72l0.96,0.24h0.24h0.24h0.96H221h0.24l0.24,0.24l1.44,0.48
		l2.88,1.44l1.2,0.96l2.16,1.68l0.48,0.96v0.24l0.72,0.72l0.72,0.48l0.48,0.48l0.72,0.24l1.44,0.72h0.24l0.48-0.24l0.24-0.24h0.24
		l1.2-0.48l2.16-0.72l0.24,2.64l-0.24,2.16l-0.24,0.24l-0.48,1.44l-0.24,0.48l-0.48,0.96h0.48l2.64-0.24h0.48h0.24l0.96-0.48
		l0.24-0.24l2.64-2.16l0.72-0.72l0.24-0.24l0.24-0.24l0.24-0.24l0.72-0.72l0.24-0.24h0.24l0.24-0.24l0.72-0.24l6-2.16h0.48
		l0.96-0.48h0.24h0.24h0.24h0.48l1.92-0.24h0.24l5.04,2.16l0.24,0.24h0.24l0.72,0.48l0.72,0.24l0.24,0.24v0.24h0.24h0.24l1.2-0.24
		l1.44-0.24l0.24-0.24v-0.72v-0.24v-0.24v-0.24v-0.24v-0.24h-0.24v-0.24l-0.24-0.48h-0.24v-0.24H269v-0.24h0.24h0.24h0.24h0.24h0.24
		h0.24h0.24h0.24h0.24h0.24h0.24h0.24h0.24h0.24h0.24h0.24h0.24v0.24h0.24h0.24h0.24h0.48v0.24h0.24h0.24H275h0.24l0.24,0.24h0.24
		h0.24v0.24l0.72,3.12v0.48l0.48,1.44v0.24h0.24l2.64-0.48v-0.24v-0.24l-0.24-0.24h0.24v-0.24v-0.24v-0.24l0.24-0.48l1.2,0.72
		l0.24,0.24l0.96,0.24l4.8,0.96l0.24-0.48l0.96-1.68l6.72,3.6l0.72,0.48l4.08,1.92l4.32,2.4l-2.16,8.88l0.48,0.24l2.16,0.24v0.24
		l-0.72,2.4v0.48v0.24h0.24l3.12,0.24l-0.48,2.16v0.24h0.24l2.16-0.24h0.48h2.88v0.24l0.24,1.44v0.48v0.24l0.24,1.44l0.24,2.16v0.24
		h0.24l2.4-0.72l2.88-0.72l3.84-1.2l0.96-0.24h0.24h0.24h0.24h0.24v-0.24h0.24h0.24h0.24h0.24l0.72-0.24l3.12-0.48h0.48l3.84-0.72
		l0.48-0.24l3.84-0.72l0.24-0.24v0.24v4.56l-0.24,3.36v0.24l1.68,0.24l-0.24,0.48l-0.24,0.96v0.24v0.72v0.24v0.24v0.48l-0.24,3.6
		v0.48l-0.24,0.48v0.24v0.24v0.24v0.24l-0.24,0.24v0.24v0.24l-0.24,0.24v0.24l-0.24,0.24l-0.24,0.48l-0.48,0.96l-1.68,4.32v0.24
		l-0.24,0.24v0.24v0.24v0.24h-0.24v0.24v0.24v0.24v0.24v0.24v0.24v0.24v0.24v0.48l0.24,3.6h-0.24l-6.48,0.24l-2.88-0.48l-0.24-0.24
		l-6.48-1.44l-6.24-1.44l-8.88-1.92l-0.48-0.24l-3.6-0.72l-3.6-0.96l-3.36-0.72l-4.56-0.96l-0.48,1.68l-0.24,3.36l0.24,0.96
		l0.24,2.16v0.24l-1.2-0.48H287l-0.48-0.24l-0.48,1.2l-0.48,1.44l-0.96,2.4l-2.4-0.96l-0.72-0.96v-0.72l-3.36-1.2l-0.24-0.24h-0.24
		l-4.08-1.44h-0.24h-0.24l-0.24-0.24h-0.24h-0.24h-0.24h-1.2v0.48h-0.24l-6.24-1.68h-0.96l-1.2-0.24l-0.24-0.24h-0.24l-0.72-0.24
		l-6.24-3.84l-2.4-1.44l-2.4,0.48l-1.68,0.48l-0.72,0.24l-1.92,0.72l-0.48,0.24l-0.96,0.24h-0.48l-0.48,0.24h-0.24h-0.24h-0.24
		h-0.24h-0.24h-0.24h-0.24h-0.24h-0.24h-0.24v-0.24h-0.24h-0.24h-0.24h-0.48h-0.24h-0.24l-0.24-0.24h-0.24h-0.24h-0.24h-0.24
		l-0.48-0.24h-0.24l-1.92-0.48h-0.48l-0.72-0.24h-0.24l0.48-0.24l0.24-0.24h0.24l0.24-0.24l0.72-0.72h0.24l0.48-0.72v-1.2v-0.24
		v-0.24l-0.24-0.24l-0.24-4.56v-0.48v-0.24v-0.48v-0.24l0.24-1.44l0.24-4.56h-0.24v-0.24h-0.24v-0.24h-0.24v-0.24v-0.24h-0.24v-0.24
		v-0.24v-0.24v-0.24v-1.68v-0.72l-0.24-0.24l-1.68-0.24l-3.6-1.44l-0.72-0.48h-0.48v-0.24h-0.72l-0.24-0.24h-0.24h-0.24h-0.24
		l-6-0.24H221l-0.96-0.24h-0.48h-0.48h-0.48h-0.24h-0.72h-0.24h-0.48h-0.24h-0.24h-0.72l-2.4-0.96l-1.2-0.24l-0.24-0.24h-0.24
		l-0.96-0.96l-0.48-0.48l-0.72-0.72h-0.24l-0.48-0.72v-0.24v-0.24v-0.24l-2.16-1.92l-0.72-0.24l-0.24,0.24h-0.24h-1.44l-0.96-0.24
		l-2.64-0.48v-0.24l-0.48-0.24l-1.92,0.24h-0.24h-0.24l-0.72,0.24l-1.2,0.24v0.24l-1.92-0.96l-0.72-1.44l-1.2-0.96l-0.72-0.24
		l-2.88-1.44l-0.72-0.48l-0.24-0.24l-0.96-0.24l-0.72,0.24h-0.96l-2.16-0.48l-1.44-0.24l-2.88-2.16l-2.4-1.44L174.2,322.49z"/>
	<path id="Rudolfsheim-Fünfhaus" class="st6" d="M291.55,422.1l0.48-1.44v-2.4l1.92-5.04h0.24h0.24h0.24l5.52,0.48l1.2,0.24h0.24
		h0.24h0.24h0.24h0.24h0.24l0.48-0.24l0.48-2.16l-0.72-0.24l-2.88-1.2l-1.68-0.72l-0.72-0.48h-0.24l-0.72-0.72l-1.2-1.44v-0.24
		l0.96-2.16v-0.48l-0.48-0.24l-1.92-0.72l-1.44-0.48l-3.6-1.44h-0.48l0.24-0.48l0.96-2.4l0.96-2.88l0.72-5.76l0.24-1.92h1.44h1.44
		h0.48h1.44h2.4l0.96-0.24l-3.6-2.64l-3.84-2.88l-6.48-4.8l-1.44-0.48l0.96-2.4l0.48-1.44l0.48-1.2l0.48,0.24h0.24l1.2,0.48v-0.24
		l-0.24-2.16l-0.24-0.96l0.24-3.36l0.48-1.68l4.56,0.96l3.36,0.72l3.6,0.96l3.6,0.72l0.48,0.24l8.88,1.92l6.24,1.44l6.48,1.44
		l0.24,0.24l2.88,0.48l6.48-0.24h0.24v0.96l0.24,3.84v0.48l0.24,1.92l0.72,3.12v0.24l0.48,2.4v-0.24l0.48,1.44v0.48l0.48,1.68
		l0.24,0.48v0.48l0.48,2.16l0.72,2.4l0.72,2.4v0.24l0.24,0.96v0.24v0.24h-0.24l-0.72,2.88l-2.16,6.24l-0.48,0.72l-0.48,1.44
		l-0.48,1.44l0.24,0.72l2.16,5.28l0.96,1.44l-0.48,0.24l-0.48,0.24l-0.48,0.48l-0.48,0.24l-0.48,0.48l-0.24,0.24l-0.48,0.48
		l-0.48,0.72l-0.48,0.48l-0.24,0.48l-0.24,0.48v0.24l-0.48,0.96l-0.48,0.72l-0.24,0.48l-0.48,0.48l-0.24,0.24l-0.48,0.72l-1.2,1.44
		l-0.24,0.24l-0.48,0.24l-0.48,0.48l-0.48,0.24l-0.48,0.48l-1.2,0.72h-0.24h-0.24l-0.96,0.48h-0.24l-0.24,0.24h-0.24h-0.24
		l-1.92,0.24h-0.24h-0.24h-0.96h-1.2h-0.96h-0.96h-1.2h-0.48l-0.48-0.24h-0.24h-0.24h-0.48l-0.24-0.24l-2.16-0.72l-0.48-0.24
		l-1.92-0.72l-0.24-0.24l-7.44-3.36l-0.48-0.24l-2.4-0.96l-0.72-0.24l-1.2-0.48l-0.48-0.24l-1.68-0.72h-0.24h-0.24l-1.92-0.48
		l-0.24-0.24h-0.72L291.55,422.1z"/>
	<path id="Penzing" class="st6" d="M204.53,274.93l-2.01,2.68l-1.44,1.92l-0.24,0.24l-0.24,0.24l-4.56,3.84l-1.44,1.2l-0.48,0.48
		l-0.96,0.72v0.24l-0.48,0.72v0.24l-0.72,1.2l-0.24,0.48l-0.48,0.48l-1.92,1.68l-0.24,0.48l-2.16,1.44l-0.24,0.24l-0.48,0.24
		l-1.44,0.72l-0.48,0.24l-1.44,0.96l-2.4,1.44l-0.24,0.24l-0.48,0.72l-0.24,0.24l-0.24,0.48l-0.24,0.24l-0.48,1.2l-0.24,0.24
		l-0.48,1.68l-0.24,0.24v1.2v0.24v1.68v0.24v0.24l-0.24,1.44l-0.24,0.48l-0.48,1.92l-0.24,0.96l-0.24,0.72l-2.4,5.52l-4.8,7.44
		l-2.88,4.08l0.72,0.24l0.96-0.96l0.24-0.48l0.48-0.72h0.24l0.24-0.24l0.48-0.24h1.2h0.96l0.48-0.72l1.44-1.68l0.72-1.2l1.44,1.2
		l2.4,1.44l2.88,2.16l1.44,0.24l2.16,0.48h0.96l0.72-0.24l0.96,0.24l0.24,0.24l0.72,0.48l2.88,1.44l0.72,0.24l1.2,0.96l0.72,1.44
		l1.92,0.96v-0.24l1.2-0.24l0.72-0.24h0.24h0.24l1.92-0.24l0.48,0.24v0.24l2.64,0.48l0.96,0.24h1.44h0.24l0.24-0.24l0.72,0.24
		l2.16,1.92v0.24v0.24v0.24l0.48,0.72h0.24l0.72,0.72l0.48,0.48l0.96,0.96h0.24l0.24,0.24l1.2,0.24l2.4,0.96h0.72h0.24h0.24h0.48
		h0.24h0.72h0.24h0.48h0.48h0.48l0.96,0.24h0.24l6,0.24h0.24h0.24h0.24l0.24,0.24h0.72v0.24h0.48l0.72,0.48l3.6,1.44l1.68,0.24
		l0.24,0.24v0.72v1.68v0.24v0.24v0.24v0.24h0.24v0.24v0.24h0.24v0.24h0.24v0.24h0.24l-0.24,4.56l-0.24,1.44v0.24v0.48v0.24v0.48
		l0.24,4.56l0.24,0.24v0.24v0.24v1.2l-0.48,0.72h-0.24l-0.72,0.72l-0.24,0.24h-0.24l-0.24,0.24l-0.48,0.24h0.24l0.72,0.24h0.48
		l1.92,0.48h0.24l0.48,0.24h0.24h0.24h0.24H239l0.24,0.24h0.24h0.24h0.48h0.24h0.24h0.24v0.24h0.24h0.24h0.24h0.24h0.24h0.24h0.24
		h0.24h0.24h0.24l0.48-0.24h0.48l0.96-0.24l0.48-0.24l1.92-0.72l0.72-0.24l1.68-0.48l2.4-0.48l2.4,1.44l6.24,3.84l0.72,0.24h0.24
		l0.24,0.24l1.2,0.24h0.96l6.24,1.68h0.24v-0.48h1.2h0.24h0.24h0.24l0.24,0.24h0.24h0.24l4.08,1.44h0.24l0.24,0.24l3.36,1.2v0.72
		l0.72,0.96l2.4,0.96l1.44,0.48l6.48,4.8l3.84,2.88l3.6,2.64l-0.96,0.24h-2.4h-1.44h-0.48h-1.44h-1.44l-0.24,1.92l-0.72,5.76
		l-0.96,2.88l-0.96,2.4l-0.24,0.48h0.48l3.6,1.44l1.44,0.48l1.92,0.72l0.48,0.24v0.48l-0.96,2.16v0.24l1.2,1.44l0.72,0.72h0.24
		l0.72,0.48l1.68,0.72l2.88,1.2l0.72,0.24l-0.48,2.16l-0.48,0.24h-0.24h-0.24h-0.24h-0.24h-0.24h-0.24l-1.2-0.24l-5.52-0.48h-0.24
		h-0.24h-0.24l-1.92,5.04v2.4l-0.48,1.44l-0.24-0.24l-1.44-0.24h-0.24v-0.24h-0.24h-1.68l-3.12-0.24h-0.48l-2.16-0.24h-0.48h-1.92
		h-0.48h-1.92h-0.24h-0.24l-2.64-0.24h-0.24h-0.24h-0.24l-0.48-0.24h-0.24h-0.24h-0.48l-0.24-0.24h-0.48l-0.48-0.24l-2.88-0.96
		l-2.4-0.72h-0.24l-0.24-0.24l-1.44-0.24l-0.48-0.24l-1.68-0.48l-0.48-0.24l-1.68-0.48l-8.64-2.64l-0.24-0.24l-1.92-0.48l-1.92-0.48
		l-1.68-0.48h-0.48l-1.68-0.48l-6.48-1.44l-3.6-0.72l-0.24-0.24l-2.16-0.24l-0.48-0.24l-1.44-0.24h-0.48l-2.64-0.24l-2.88-0.48
		h-0.24l-5.76-0.96l-3.6-0.48l-3.12-0.48l-3.6-0.48h-0.24h-0.48h-0.24l-0.24-0.24h-0.24h-0.24h-0.24h-0.24l-0.24-0.24h-0.24H203
		h-0.24l-0.24-0.24h-0.24h-0.24l-0.24-0.24h-0.24h-0.48v-0.24h-0.48l-0.48-0.24l-2.16-0.96h-0.24h-0.24v-0.24h-0.24H197l-0.24-0.24
		l-0.24-0.24h-0.24l-1.44-1.44l-0.72-0.48l-2.16-1.68l-0.72-0.72l-1.44-0.96l-0.48-0.24l-1.92-1.2l-7.92-5.52l-5.52-4.08l-2.16-1.44
		l-1.44-1.2l-0.72-0.48h-0.24l-0.24-0.24h-0.24l-0.24-0.24l-0.24-0.24l-0.48-0.24l-0.72-0.24H167l-0.48-0.24h-0.24h-0.24l-0.24-0.24
		h-0.24h-0.24l-0.72-0.24h-0.24l-1.2-0.24h-0.24l-0.24,0.24h-0.24h-0.24l-0.24,0.24l-1.68-0.24l-6.96-1.2h-0.24h-0.24h-0.24
		l-1.68-0.24l-0.24-0.24h-0.24h-0.24l-0.24-0.24h-0.24h-0.24l-0.24-0.24H149h-0.24l-0.24-0.24h-0.24h-0.24v-0.24h-0.24h-0.24
		l-0.24-0.24h-0.24h-0.24v-0.24h-0.24h-0.24l-0.24-0.24l-0.24-0.24h-0.24h-0.24l-0.24-0.24l-0.24-0.24h-0.24h-0.24v-0.24l-0.96-0.48
		l-1.68-1.2l-0.24-0.24l-1.92-1.44l-0.24-0.24l-0.24,0.24l-1.68,3.12l-0.48,0.48l-1.44,1.44l-2.4,1.2v-0.48l-0.24-2.16v-0.24
		l-0.24-0.72l-0.48,0.24l-5.76,1.44l-3.6,0.96l-2.16,0.72l-0.24,0.24l-0.24-0.24l-2.16-1.2l-2.4-1.44l-4.56-2.64h-0.48l-2.88-1.44
		h0.48l-0.96-0.72H107l-0.24-0.24l-1.68-0.96h-0.24l-0.48-0.24l-1.68-0.96l-2.64-1.68l-1.68-1.68l-0.24-0.24l-1.68-1.44H96.2
		l-0.72,0.96l-0.72,0.72l-0.96,1.2l-2.16,2.16l-0.48,0.48l-1.2,1.2H89l-0.72-0.24l-0.72,1.92l-0.72,0.96l-0.48,0.96l-0.24,0.24
		l-0.48,0.72l-0.48,0.96l-0.48,1.44l-0.48-0.24l-0.72-0.24h-0.24h-0.48l-0.48,0.24H81.8h-0.48l-0.48-0.24l-2.88-1.92h-0.24
		l-0.96-0.72l-1.92-1.68l-0.24-0.48l-0.24-0.48l-0.24-0.48v-0.24v-0.72l2.4-0.96l1.44-2.4l0.72-0.24l0.48-0.24l0.48-0.24l0.24-0.24
		l0.96-0.48l0.72-0.72l0.24-0.24l0.72-0.72l0.48-0.72l0.48-0.48v-0.24l0.24-0.48l0.72-1.2l0.48-1.2l1.92-1.68l0.96-0.72l1.2-0.72
		l-1.92-3.36l-0.48-0.72l-2.88-1.2l-0.96-0.24l-0.24,0.24l-1.92-1.2l-0.96-0.72l-3.6-0.96h-0.48H74.6h-0.72l-0.48-0.24l-3.84-1.68
		l-0.24-0.24l-3.6-4.32l-1.68-3.84l-0.72-1.44l-0.48-1.2v-0.48h0.24l0.24-0.48v-0.72l-0.24-1.44l-0.72-1.68l-0.96-1.44l-0.48-1.2
		l-0.24-0.24v-0.24l0.48-0.72l3.36-4.08H65l0.24-0.24h0.24l0.24-0.24l1.2-1.2v-1.44l-0.96-1.68l-3.12-1.44h-2.16l-4.08-0.24h-0.96
		h-0.48h-0.48l-1.2,0.48l-1.44,0.24l-0.72,0.24l-0.48,0.24H50.6l-1.2-0.24h-0.72l-0.48-0.24l-1.44-0.24H43.4l-0.24,0.24l-0.96,0.72
		l-0.72-0.72l0.72-1.68l1.68-2.16l2.16-1.44h0.24l0.24-0.24l2.4-0.24l2.16-0.24l2.88-2.16l0.96-0.96l1.92-2.4l1.2-1.68v-0.24
		l0.48-0.96l0.24-0.24l0.96-0.96l4.32-3.6h0.24H65h0.48v0.24h0.24h0.24l0.72,1.2v0.24l0.24,0.48h0.24l1.44,1.44v-1.68l-0.24-4.8
		l-0.24-0.72L65,292.25l-4.08-2.88l-2.88-1.68H57.8l-0.96-3.84v-0.48l0.24-0.96l0.48-1.2l0.48-0.96v-0.24H57.8l-0.24-0.24h-0.48
		l-0.72-0.48l0.24-1.2l0.24-0.48l0.96-0.48l0.96-1.92l0.24-0.48l0.24-1.68l0.48-6l-0.24-0.48h-0.24h-0.48h-0.24l-0.24-0.24v-0.24
		l-0.48-6.96v-0.24v-0.24v-0.48l0.48-1.68l0.24-0.48v-0.24l0.24-0.24v-0.24l0.24-0.24l0.96-1.44l0.48-0.72l0.72-1.44l1.44-3.84
		v-1.68v-0.48l-0.24-0.24v-1.44l0.24-2.4v-0.48l0.24-0.48l0.24-0.72l3.36-4.32l1.68-2.88l0.24-0.72l1.68-2.4l0.96-0.96l0.48-0.24
		l0.96-0.48l1.44-0.72l2.16-1.92l2.4-2.16l1.2-0.24l1.44-1.2l0.24-0.24v-0.96l-0.24-0.72l-0.48-1.2l-0.96-0.96v-0.72v-2.64
		l0.24-1.68l0.48-0.72l0.72-1.44l0.24-1.68v-2.16l-0.24-0.72l-0.24-0.48l-0.48-0.48v-0.24v-0.48l1.2-2.16l0.48-0.48l1.2-1.2
		l1.44-1.2l0.48-0.24l0.96-0.48l0.96-0.24l0.48,0.24l0.96,0.48l0.96,0.72l3.6,3.6l2.4,2.88l0.72,0.72l1.92,0.96l0.24,0.48l0.48,0.96
		l-0.24,0.72l1.44,0.72h0.24l2.16,0.96l1.92,0.96l4.08,1.92l1.68,0.24l1.44,0.96l3.12,4.08l1.44,1.68l1.44,0.96l4.08,2.64l0.96,1.44
		l1.44,1.44l2.4,1.68l1.92,1.2l1.44,2.16l0.72,1.2l0.72,0.72l2.4,1.2l1.68,1.44l0.48,1.2l2.16,0.72h0.48l2.16,0.24l0.72,0.24
		l3.84,1.68l2.64,1.68l1.92,0.96v0.96l-1.2,2.64l-1.2,2.16l-1.44,2.88l-0.48,1.68l-0.24,2.4l-1.44,1.44l-0.72,0.48v0.24l-0.48,1.44
		l0.24,1.68l0.24,1.92l0.48,2.16l0.48,0.96l0.48,0.72l0.24,0.24l0.48,0.48l0.96,0.24l0.96,0.24l0.48,0.48l0.72,1.44l0.72,0.96
		l1.68,1.44l1.68-1.2l5.28-0.48h1.44l1.44-0.48l2.88-1.2l1.44-0.72l2.4-1.68h1.92h3.12l3.6,0.24l0.48,0.48l2.16,0.48h1.44h1.2
		l4.32,0.72l3.36,1.44l0.48,0.24l2.4,0.96l2.4,1.2l5.52,2.64l1.68,0.72h0.72h0.24l0.48-0.24v-0.24l0.24-0.24l0.48-0.48l0.48-0.72
		L204.53,274.93z"/>
	<path id="Hietzing" class="st6" d="M115.16,520.74l-1.68-0.24l-2.64-0.48l-6-1.2l-6.48-0.96l-4.8-0.96l-1.68-0.24l-6.24-1.2
		l-6.72-1.2L77,514.02l-0.48,0.24l-1.92,0.96l-1.44,0.72l-6.24,1.92l-0.96-2.16L65,513.3l-1.2-2.4l0.48-3.84l0.24-2.64l0.72-6.24
		l-2.4-8.64l-4.56-6.72l-0.24-0.24l-5.28-2.4l-6-2.64l-6.24-2.64l-3.36-2.4l-1.92-3.6L35,468.67l0.96-0.72l3.84-2.4l5.76-4.08
		l0.72-0.72l0.24-5.76l0.24-3.6l2.4-3.12l1.92-2.16l1.68-1.44l3.36-2.88l1.2-0.72l5.04-9.36l3.36-2.88l3.36-3.12l0.96-0.72
		l4.8-11.04l1.44-2.88l1.68-8.4v-0.48v-1.2v-5.76l0.72-1.2l1.92-2.64l0.24-1.68l0.72-2.88v-0.24l0.24-0.96l2.4-6.72l0.48-0.96
		l0.48-1.44l0.48-0.96l0.48-0.72l0.24-0.24l0.48-0.96l0.72-0.96l0.72-1.92l0.72,0.24h0.96l1.2-1.2l0.48-0.48l2.16-2.16l0.96-1.2
		l0.72-0.72l0.72-0.96h0.24l1.68,1.44l0.24,0.24l1.68,1.68l2.64,1.68l1.68,0.96l0.48,0.24h0.24l1.68,0.96l0.24,0.24h0.24l0.96,0.72
		h-0.48l2.88,1.44h0.48l4.56,2.64l2.4,1.44l2.16,1.2l0.24,0.24l0.24-0.24l2.16-0.72l3.6-0.96l5.76-1.44l0.48-0.24l0.24,0.72v0.24
		l0.24,2.16v0.48l2.4-1.2l1.44-1.44l0.48-0.48l1.68-3.12l0.24-0.24l0.24,0.24l1.92,1.44l0.24,0.24l1.68,1.2l0.96,0.48v0.24h0.24
		h0.24l0.24,0.24l0.24,0.24h0.24h0.24l0.24,0.24l0.24,0.24h0.24h0.24v0.24h0.24h0.24l0.24,0.24h0.24h0.24v0.24h0.24h0.24l0.24,0.24
		H149h0.24l0.24,0.24h0.24h0.24l0.24,0.24h0.24h0.24l0.24,0.24l1.68,0.24h0.24h0.24h0.24l6.96,1.2l1.68,0.24l0.24-0.24h0.24h0.24
		l0.24-0.24h0.24l1.2,0.24h0.24l0.72,0.24h0.24h0.24l0.24,0.24h0.24h0.24l0.48,0.24h0.24l0.72,0.24l0.48,0.24l0.24,0.24l0.24,0.24
		h0.24l0.24,0.24h0.24l0.72,0.48l1.44,1.2l2.16,1.44l5.52,4.08l7.92,5.52l1.92,1.2l0.48,0.24l1.44,0.96l0.72,0.72l2.16,1.68
		l0.72,0.48l1.44,1.44h0.24l0.24,0.24l0.24,0.24h0.24h0.24v0.24h0.24h0.24l2.16,0.96l0.48,0.24h0.48v0.24h0.48h0.24l0.24,0.24h0.24
		h0.24l0.24,0.24H203h0.24h0.24l0.24,0.24h0.24h0.24h0.24h0.24l0.24,0.24h0.24h0.48h0.24l3.6,0.48l3.12,0.48l3.6,0.48l5.76,0.96
		h0.24l2.88,0.48l2.64,0.24h0.48l1.44,0.24l0.48,0.24l2.16,0.24l0.24,0.24l3.6,0.72l6.48,1.44l1.68,0.48h0.48l1.68,0.48l1.92,0.48
		l1.92,0.48l0.24,0.24l8.64,2.64l1.68,0.48l0.48,0.24l1.68,0.48l0.48,0.24l1.44,0.24l0.24,0.24h0.24l2.4,0.72l2.88,0.96l0.48,0.24
		h0.48l0.24,0.24h0.48h0.24h0.24l0.48,0.24h0.24h0.24h0.24l2.64,0.24h0.24h0.24h1.92h0.48h1.92h0.48l2.16,0.24h0.48l3.12,0.24h1.68
		h0.24v0.24h0.24l1.44,0.24l0.24,0.24l1.68,0.48h0.72l0.24,0.24l1.92,0.48h0.24h0.24l1.68,0.72l0.48,0.24l1.2,0.48l0.72,0.24
		l2.4,0.96l-0.96,2.64l-0.72,2.16l-0.48,5.28l-10.08,21.12v0.24h-0.24v0.24h-0.24l-0.24,0.24h-0.24v0.24h-0.24v0.24h-0.24v0.24
		h-0.24v0.24l-1.92,2.4l-5.52,6.48l-2.16,2.88l-1.68-0.48l-3.12-1.2l-1.2-0.48l-5.52-1.92l-0.24-0.24l-1.44-1.92l-0.24-0.24
		l-0.48,0.48l-0.72,0.72l-0.24,0.48l-0.96,0.72l-0.48,0.72l-0.48,0.48l-0.24,0.48l-0.24,0.24h-0.24v0.24l-0.24,0.24v0.24v0.48h-0.24
		l-0.72,1.2l-3.6-0.48H257l-1.44,4.56v0.24l-0.48,1.68l-4.8,12.24l-1.2,2.4l-0.24,0.72l-0.72,2.16l-0.48-0.24v0.48l-0.24,0.24v0.24
		v0.24v0.24v0.24l-0.24,0.48v0.24l-0.24,5.52v0.96v2.16v1.2l-3.36,1.68l-4.32,2.4l0.24,0.72l-0.72,0.24v0.24h-0.24h-0.24l-0.72-2.4
		l-1.44-4.32l-0.24-0.24l-0.24-0.48l-0.48-1.2h-0.24l-0.24,0.24h-0.48l-2.88,0.72l-1.92,0.24l-1.92,0.24l-2.64-1.68l-0.96-0.72
		l1.2-1.68v-0.24l1.2-2.16l0.96-1.2l-1.2-1.2l-0.24-0.24l-2.16-2.16l-0.48,0.72l-1.2,1.92l-2.64,4.56l-4.08,6.72l-3.12,5.28
		l-0.24,0.72l-0.48-0.24l-2.4-1.68l-6.48-4.08l-2.88-1.92l-3.6-1.92l-3.84-2.16l-7.92-0.96l-1.2,0.24h-0.72l-2.64,0.48l-6.96,6.24
		l-0.72,0.48v0.24h-0.24l-1.68,0.48l-6.96,2.4l-2.16,0.72h-0.24l-5.52,3.12l-9.6,5.52l-1.44,0.96h-0.24l-11.28,6.72l-1.68,1.44
		l-1.44,1.44l-0.96,0.96l-4.56-4.32l-2.88-2.88l-0.72-0.96l-2.16-2.16h-0.96L115.16,520.74z"/>
	<path id="Meidling" class="st6" d="M333.07,502.98l-1.2,1.44l-2.16,2.4l-2.4,2.4l-1.44,1.68l-0.72,0.72l-0.24,0.48l-0.24,0.24
		l-0.48,0.48l-0.24,0.24l-0.24,0.48l-0.24,0.24h-0.96l-0.96-0.72l-1.2-0.48l-1.2-0.72l-1.2-0.24l-1.44-0.72l-5.52-1.68l-1.44-0.24
		l-1.44-0.24h-1.68h-0.24v0.24l-0.24,0.24v0.24l-0.24,0.24v0.24h-0.24l-4.08,0.72h-0.48l-0.24-1.44l-0.24-2.16l-2.4,0.72h-0.72
		l-1.2,0.48h-0.48v-0.72l0.24-1.2h-0.24l-1.2-0.24l-2.16-0.48l-2.4-0.48l-2.88-0.48l-0.96-0.24l-0.48-0.24l-0.72-0.24h-0.48
		l-0.72-0.24l-2.64-1.2h-0.24h-0.48l-1.2-0.24l-0.48-0.24h-0.72l-0.96-0.24l-0.72-0.24l-0.48-0.24h-0.48l-0.72-0.24l-0.24-0.24
		l-1.44-0.48l-0.24-0.24l-0.72-0.24l-1.68,1.2l-0.24,0.24l-1.68,1.44l-0.24,0.24l-0.72,0.48l-0.72,0.96l-0.72,0.48l-1.44,1.44
		l-0.72,0.48l-1.2,1.2v0.24l-0.72,0.48l-2.63,2.88l-6.72-2.88l-2.4-0.72l0.96-2.64l0.48-0.96l0.48-1.2l0.48-1.2v-0.24l0.24-0.24
		v-0.48l0.24-0.48l0.24-0.48l0.24-0.24l0.24-0.48l0.24-0.24l0.24-0.48l0.24-0.48l0.24-0.24l0.24-0.48l0.24-0.24l0.24-0.48l0.24-0.24
		l0.24-0.48l0.48-0.48l-2.88-0.24l-4.32-0.72l-0.72-0.24h-0.24l0.72-2.16l0.24-0.72l1.2-2.4l4.8-12.24l0.48-1.68v-0.24l1.44-4.56
		h0.24l3.6,0.48l0.72-1.2h0.24v-0.48v-0.24l0.24-0.24v-0.24h0.24l0.24-0.24l0.24-0.48l0.48-0.48l0.48-0.72l0.96-0.72l0.24-0.48
		l0.72-0.72l0.48-0.48l0.24,0.24l1.44,1.92l0.24,0.24l5.52,1.92l1.2,0.48l3.12,1.2l1.68,0.48l2.16-2.88l5.52-6.48l1.92-2.4v-0.24
		h0.24v-0.24h0.24v-0.24h0.24v-0.24h0.24l0.24-0.24h0.24v-0.24h0.24v-0.24l10.08-21.12l0.48-5.28l0.72-2.16l0.96-2.64l0.48,0.24
		l7.44,3.36l0.24,0.24l1.92,0.72l0.48,0.24l2.16,0.72l0.24,0.24h0.48h0.24H317l0.48,0.24h0.48h1.2h0.96h0.96h1.2h0.96h0.24h0.24
		l1.92-0.24h0.24h0.24l0.24-0.24h0.24l0.96-0.48h0.24h0.24l1.2-0.72l0.48-0.48l0.48-0.24l0.48-0.48l0.48-0.24l0.24-0.24l1.2-1.44
		l0.48-0.72l0.24-0.24l0.48-0.48l0.24-0.48l0.48-0.72l0.48-0.96v-0.24l0.24-0.48l0.24-0.48l0.48-0.48l0.48-0.72l0.48-0.48l0.24-0.24
		l0.48-0.48l0.48-0.24l0.48-0.48l0.48-0.24l0.48-0.24h0.24l0.72-0.24l0.96-0.24h0.96h2.4l0.48,0.72l0.72,1.44l4.32,7.2l3.12,5.04
		l3.36,6l2.88,5.28l0.24,0.24l0.24,0.96l-2.16,0.72l-1.44,0.48l-0.72,0.24l-0.48,0.24h-0.24v0.24l-0.72,0.48l-0.72,0.48L353,448.5
		l-2.16,1.44l-1.92,1.44l-0.72,0.48l-1.92,0.96v-0.24l-1.68,0.72l0.48,1.68l0.48,1.68l0.24-0.24h0.24h1.92l1.92,0.96v2.16h1.92
		l1.44,0.24v0.24l1.68,2.88l0.48,1.44l0.24,0.24v0.24v0.24l0.24,0.48v0.24l0.24,0.24v0.48h-0.24h-0.24l-0.48,0.24h-0.72h-0.48h-0.24
		l-0.48,0.24H353l-0.72,1.92l-1.2,3.12h-0.24h-0.24l-0.24-0.24h-0.24h-0.24v-0.24h-0.24h-0.24h-0.24l-0.24-0.24h-0.24h-0.24h-0.24
		l-0.24-0.24h-0.24h-0.24h-0.24l-0.24-0.24l-10.56-1.92l-0.24,0.48l-0.72,1.68l-1.68,4.08l-0.48,0.72v0.24l-0.48,0.96l-3.6,7.2
		l-2.16,4.56l-0.72,2.88v0.24l1.68,1.68l0.48,0.48l0.48,0.48v0.24l0.24,0.24l1.2,2.16h0.24v0.24v0.24l0.96,1.68v0.24l1.2,3.12
		L333.07,502.98z"/>
	<path id="Simmering" class="st6" d="M448.74,455.94l3.12,0.24l0.24-1.44l1.2-7.68l2.4-1.92l0.72-0.48l1.68-1.44l0.96-1.44l1.2-1.92
		l1.68-2.16l0.48,0.24l0.48,0.24l1.44-1.68v-0.24h-0.24l-0.72-0.72l1.44-1.68l0.72-1.2l-2.4-3.84l0.72-0.48l0.96-0.72l1.68-1.2
		l0.72,0.96l0.24,0.24l1.2,1.44h0.24v-0.24l0.24-0.24h0.24v-0.24h0.24v-0.24h0.24l0.96,0.48l5.52,2.4l2.4,1.2l0.72,0.24l3.12,1.2
		l1.44-2.16l2.4-3.84l0.24-0.24v-0.24h0.72l0.72,0.48h0.48l0.24,0.24l2.16-0.48v-0.24l0.24-0.48l0.24-0.24l0.24-0.24v-0.24
		l0.48-0.24h0.24l0.72,0.24l0.72,0.24l1.68,0.48h0.24l0.96-3.6l0.48-1.44l0.48,0.48l0.72,0.72l0.48,0.48l0.72,0.24l0.72,0.48
		l0.48,0.24l0.96,0.48l8.16,2.64h0.48l0.48,0.24h0.24l0.72,0.24h0.48h0.24h0.24h0.24l0.24-0.24h0.24l0.24-0.24l0.24-0.72l0.72-0.72
		l0.24-0.24l0.24-0.24h0.24h0.24h0.24h0.24h0.24l0.72,0.24l0.24-0.24l0.48-0.96l2.64,0.96l7.2,3.12l4.08,1.92l2.88,1.2l0.96,0.48
		l15.84,6.96l6,2.64h0.24l2.88,1.44l1.92,0.96l9.12,3.84l1.92,0.72l0.72,0.24l3.36,1.68l8.64,3.84h0.24l0.24,0.24l0.48,0.24
		l0.48,0.24l0.48,0.24l0.48,0.24l0.48,0.24l0.48,0.24l0.48,0.24l0.48,0.24l0.48,0.24l0.48,0.24l7.44,4.32l4.56,2.64l0.24,0.24
		l0.48,0.24h0.24l0.24,0.24l0.24,0.24l0.48,0.24l0.24,0.24h0.24l0.24,0.24l0.24,0.24l0.48,0.24l2.4,1.68l3.36,2.16l5.28,2.88
		l2.16,1.44l1.2,0.72l1.92,1.2l2.4,0.96l0.48,0.24l3.36,1.68l2.16,0.96l2.16,1.2l2.4,1.44l2.16,1.2h0.24v0.24l2.4,1.44l1.2,0.48
		l3.36-3.36l0.48,0.24l1.68,0.96l2.16,1.44l1.68,1.2l8.16,5.52l3.36,2.16l1.68,0.96l12.96,8.4l0.24,0.24l-0.24,0.24l-4.32,1.2
		l-5.04,1.44l-3.36,0.96h-0.24h-0.24l-0.24,0.24l-9.6,2.4l-6.48,1.44l-0.72-1.2l-3.36-1.92l-1.92-1.44l-0.72-0.72l-0.72-0.48
		l-0.24-0.24l-1.92-1.44l-0.72,0.48l-0.96,0.72l-0.24,0.24l-0.72,0.72l-2.4,2.88l-1.2,1.44l-0.24,0.24l-0.24,0.24l-0.24,0.48
		l-0.24,0.24l-0.96,0.96l-0.24,0.24l-1.92,1.68l-1.2-0.48l-1.44-0.24l-0.96-0.24l-3.12-0.96h-0.24l-8.64-2.16v0.24l0.48,0.96h-0.24
		l-0.72-0.24l-2.64-0.96l-0.96-0.72v0.24l0.24,1.92l-0.24,1.44l-0.24,1.2l-0.48,0.96l-0.96,1.92l-0.48,0.72l-1.68,1.68l-1.44,1.44
		l-0.96,0.96l-0.48,0.24l-0.48,0.72l-0.72,0.72l-0.48,0.48l-0.72,0.48l-0.24,0.48l-0.24,0.48l-2.4,2.4l-1.2,1.2l-0.72,0.72
		l-2.16,2.16l-0.48,0.48l-1.68,1.68l-0.24,0.24l-4.08,4.32l-0.48,0.48l0.72,0.72h0.24l0.24,0.24l-0.48,0.48l-2.4,2.64l-1.44,1.68
		l-0.48,0.48l-3.12,3.12l-2.16,1.44l-2.64,1.92l-3.84,2.88l-2.88,3.12h-0.24l-0.24,0.24l-0.48,0.48l-1.44,0.96l-0.96,0.48
		l-0.72,0.48l-0.72,0.24l-0.72,0.48l-0.72,0.24l-2.88,0.24l-0.48,0.24h-1.2h-0.24l-9.12,0.72l-3.36,0.24l-2.16,0.24l-6.24,0.24
		l-7.68,0.72l-2.16-5.04l-0.24-0.48l-0.96-2.4l-0.24-0.48l-0.72-1.68l-0.96-1.92l-0.24-0.48l-0.72-2.16l-1.68-3.84l-0.24-0.24
		l-3.84-8.4l-0.48-0.48l-1.44-2.16l-1.68-1.92l-1.92-2.4l-1.68-2.4v-0.24l-1.68-2.16l-1.44-1.92l-3.12-4.08l-1.92-2.4l-5.04-6.24
		l-11.76-15.36l-0.24-0.24l-5.28-6.96l-5.76-7.44l-0.72-0.96l-0.24-0.24l-1.44-1.68l-0.72-0.96l-0.96-0.96l-2.16-2.16l-0.48-0.48
		l-3.12-3.36l-8.4-8.4l-1.92-2.16v-0.48l-1.2-1.2l-0.24-0.48l-1.2-0.96l-0.48-0.48L448.74,455.94L448.74,455.94z"/>
	<path id="Favoriten" class="st6" d="M391.15,591.79l0.96-4.08v-0.24l0.72-3.6h0.48h0.24l0.72-3.6l0.48-0.96l0.24-1.68l2.64-6.24
		l0.48-0.24l2.16-5.76l0.72-1.92v-0.24h-0.48h-0.24l-0.48-0.24l1.44-3.84l1.2-3.12l0.96-2.64l0.72-1.92l0.24-0.72l0.24,0.24
		l0.72,0.72l0.72,0.24l1.68,0.48l2.88-6.72v-0.24l2.64-8.4l-1.92-0.72l-2.88-0.96h-0.48h-0.24h-0.24l-5.04-1.92l-2.64-1.2l-3.36-1.2
		l-6.24-2.16l-6.24-2.4l-0.72-0.24l-1.44-0.24l-0.48-0.24l-0.72-0.24l-1.2-0.24h-1.2h-3.12l-2.16-0.24l-5.76-0.24l-3.84-0.24
		l-4.08-0.24l-3.12-0.24l-5.28-1.44l-3.12-0.72l-0.72-0.24l-2.4-0.72l-0.96-0.24l-1.2-0.72l-0.96-0.72l-0.96-0.48l-0.96-0.96
		l-0.24-0.24l-0.24-0.48l-0.24-0.24l-0.48-0.96l-0.72-0.96l-1.2-3.36l-0.72-2.4l-0.72-1.44l-1.92-4.8l-0.24-0.24l-1.2-3.12v-0.24
		l-0.96-1.68v-0.24v-0.24h-0.24l-1.2-2.16l-0.24-0.24v-0.24l-0.48-0.48l-0.48-0.48l-1.68-1.68v-0.24l0.72-2.88l2.16-4.56l3.6-7.2
		l0.48-0.96v-0.24l0.48-0.72l1.68-4.08l0.72-1.68l0.24-0.48l10.56,1.92l0.24,0.24h0.24h0.24h0.24l0.24,0.24h0.24h0.24h0.24
		l0.24,0.24h0.24h0.24h0.24v0.24h0.24h0.24l0.24,0.24h0.24h0.24l1.2-3.12l0.72-1.92h0.24l0.48-0.24h0.24h0.48h0.72l0.48-0.24h0.24
		h0.24v-0.48l-0.24-0.24v-0.24l-0.24-0.48v-0.24v-0.24l-0.24-0.24l-0.48-1.44l-1.68-2.88v-0.24l-1.44-0.24h-1.92v-2.16l-1.92-0.96
		h-1.92h-0.24l-0.24,0.24l-0.48-1.68l-0.48-1.68l1.68-0.72v0.24l1.92-0.96l0.72-0.48l1.92-1.44l2.16-1.44l0.72-0.48l0.72-0.48
		l0.72-0.48v-0.24h0.24l0.48-0.24l0.72-0.24l1.44-0.48l2.16-0.72l1.2-0.24l0.48-0.24l3.12-0.24l3.36-0.48h1.68l0.72-0.24l0.72-0.24
		h0.24h0.24h0.24h0.24v-0.24h0.24h0.48l1.68-0.72l0.72-0.24l1.68-0.72l1.44-0.48l1.2-0.48h0.24l0.24-0.24l1.92-0.72l0.48-0.24
		l3.84-2.16l1.68-0.96l0.48-0.24l1.92-0.96l0.72-0.48h0.24l1.92-0.96l0.24-0.24h0.24l1.92-0.96l1.44-0.72l5.28-2.64h0.24h0.24h0.24
		l0.72-0.24l1.92-0.72l0.48-0.24l-0.24-1.44l0.24-0.24v-0.24v-0.24l0.24-0.24l4.8-2.16l0.24-0.24h0.48l5.52-2.64l0.72-0.24l2.4-0.96
		l0.48,0.72l0.72,2.16v0.24h0.24v0.24l0.24,0.24v0.24l0.24,0.24l1.2,1.44l0.24,0.48l0.96,1.2l1.44,1.92l0.24,0.24v0.24l0.24,0.24
		v0.24v0.24l0.24,0.24v0.48l0.72,1.68l1.44,2.4l8.88,10.8l2.4,2.64l4.08,4.32l2.88,2.64l0.96,0.96v0.24l0.24,0.48l0.48,0.48
		l1.2,0.96l0.24,0.48l1.2,1.2v0.48l1.92,2.16l8.4,8.4l3.12,3.36l0.48,0.48l2.16,2.16l0.96,0.96l0.72,0.96l1.44,1.68l0.24,0.24
		l0.72,0.96l5.76,7.44l5.28,6.96l0.24,0.24l11.76,15.36l5.04,6.24l1.92,2.4l3.12,4.08l1.44,1.92l1.68,2.16v0.24l1.68,2.4l1.92,2.4
		l1.68,1.92l1.44,2.16l0.48,0.48l3.84,8.4l0.24,0.24l1.68,3.84l0.72,2.16l0.24,0.48l0.96,1.92l0.72,1.68l0.24,0.48l0.96,2.4
		l0.24,0.48l2.16,5.04h-0.24h-0.72l-2.64,0.24h-2.4l-0.48,11.28l-0.24,3.36v0.72l0.24,2.4v0.24v0.24l0.96,1.92h0.48l0.72-0.24
		l0.24,2.88v0.72v0.96v1.44v1.44v2.16v0.24v0.24v0.24v0.48v2.64v0.96v0.24l0.24,1.68l0.24,1.92l0.24,1.68l1.68,3.84l0.96,2.16
		l0.24,0.48l0.72,1.92l1.44,3.84l-1.44-0.48l-1.92-0.72l-4.32-0.96l-0.72-0.24l-2.4-0.48h-0.96l-1.92-0.48l-0.48-0.24h-0.48
		l-1.92-0.72l-0.48-0.24h-0.48l-0.72-0.24l-3.84-1.44l-0.24-0.24l-1.44-0.72h-0.24l-0.48-0.24l-0.72-0.48l-0.96-0.48l-1.2-0.72
		l-0.72,1.44l-0.48,1.2l-0.24,0.72l-0.24,0.24l-0.24,0.24l-0.24,0.48l-0.72,0.72l-1.2,1.44l-0.48,0.48l-0.24,0.24l-7.92,0.24
		l-8.88,0.48l0.24,1.2l0.48,1.44l0.24,0.48l0.24,0.72l0.96,2.16h-0.24l-4.32,0.48l-4.32,0.72l-0.24-0.72l-0.24-0.72l-0.24-0.72
		l-0.24-1.2l-0.48-1.44l-0.48-1.44l-0.24-0.24v-0.24l-0.48-0.48l-0.48-0.24l-0.24-0.24l-0.48-0.24h-0.24l-0.96-0.48l-0.48-0.24
		l-0.96-1.68l0.24-0.72v-0.48v-0.48h-0.48l-3.36-0.96l-2.64-0.72l-3.84-1.2l-0.48-0.24l-2.64-0.72l-4.56-1.2l-1.2-0.24l-1.2-0.24
		l-0.72-0.24l-4.08-0.96l-1.92-0.48v-0.24v-0.48l-0.48-0.24l-0.24-0.24l-0.48-0.24l-4.08-1.2l-5.76-1.92l-1.68-0.48l-2.88-0.48
		l-2.16-0.24l-2.64-0.24l-2.16-0.48h-0.48l-1.92-0.48l-3.6-0.48l-5.28-0.24l-3.84-0.48l-4.8-1.2l-0.96-0.24h-0.72l-1.44-0.48
		l-3.12-1.2L391.15,591.79z"/>
	<path id="Alsergrund" class="st6" d="M368.11,291.77l0.48-0.48h0.24l0.72,0.72v-0.24h0.24h0.24v-0.24h0.24v-0.24h0.24v-0.24h0.24
		v-0.24h0.24v-0.24l0.24-0.24v-0.24h0.24l0.24-0.96l0.48-0.72v-0.72h0.24v-0.24v-0.24l0.48-2.4l0.72-4.32v-0.24h0.24v-0.24v-0.24
		h0.24h0.24v-0.24h0.24h0.24h3.6l4.8-0.24v0.24v0.24v0.24l-0.24,0.24v0.24v0.24v0.24v0.24l-0.24,0.24v0.24v0.24v0.24v0.24v0.24v0.24
		h-0.24v0.24v0.24v0.24v0.24v0.24v0.24v0.24v0.24l-0.24,0.24v0.24v0.24v0.24v0.24v0.24v0.24v0.24v0.24v0.24v0.24v0.24v0.24h0.24
		v0.24v0.24v0.24v0.24v0.24l0.24,0.24v0.24v0.24v0.24l0.24,0.24v0.24v0.24v0.24h0.24v0.24v0.24v0.24v0.24h0.24l2.16,6.48v0.24h0.24
		v0.24v0.24v0.24h0.24v0.24v0.24h0.24v0.24v0.24h0.24v0.24v0.24h0.24v0.24v0.24h0.24v0.24l0.24,0.24v0.24h0.24v0.24l0.24,0.24v0.24
		h0.24v0.24l0.24,0.24v0.24h0.24v0.24h0.24v0.24l0.96,1.2l0.96,0.96h0.24l1.44,1.44l0.24,0.48l0.24,0.24v0.24h0.24v0.24h0.24v0.24
		l0.24,0.24l0.48,1.2l0.24,0.24v0.24v0.24h0.24v0.24v0.24l0.24,0.24v0.24v0.24l0.24,0.24v0.24v0.24v0.24l0.24,0.24v0.24v0.24v0.24
		v0.24v0.24l0.24,0.24v0.24v0.24v0.24v0.24v0.24v0.24v0.24v0.24v0.24v0.24v0.24v0.24v0.24v0.24v0.24v0.24v0.24v0.24v0.24v0.24v0.24
		v0.24v0.24v0.24v0.24v0.24v0.24l0.24,0.48v0.24v0.24v0.24v0.24v0.24v0.24v0.24v0.24h0.24v0.24v0.24v0.24v0.24v0.24l0.24,0.24v0.24
		v0.24v0.24l0.24,0.24v0.24v0.24l0.48,0.72l0.24,0.24l0.24,0.24l0.24,0.48v0.24h0.24v0.24l0.24,0.24l0.24,0.24l0.48,0.72l0.96,0.72
		l-1.44,1.68l-14.16,9.84l-3.12,2.16l-1.68-0.24l-6-1.2l-1.2-0.96v-0.24l-3.84-0.24l-3.12-0.24l-2.4-0.24l-4.56-0.72l-5.04-0.48
		l-0.96,0.24h-0.24l-7.68,0.48h-1.2l2.16-6l0.24-0.48l0.24-1.2l0.24-0.24v-0.24v-0.24l0.24-0.96l0.24-0.24v-0.24h-0.48l2.4-9.12
		v-0.24l0.48-0.48l0.24-0.24l6-2.4h0.24v0.24h0.24v0.24l0.24-0.24h0.24l0.24-0.24h0.24l0.24-0.24h0.24v-0.24h0.24l0.24-0.24
		l0.24-0.24l0.24-0.24l0.24-0.24l0.24-0.48v-0.24l0.24-0.48l0.24-0.24v-0.48v-0.24l0.24-0.48l0.24-2.88l0.96-5.76l0.96-6.72v-0.72
		l0.24-0.48v-0.24v-0.24h0.24v-0.24v-0.24l0.24-0.24v-0.24l0.48-0.48v-0.24h0.24l0.48-0.48v-0.24h0.24l1.44-1.2l0.96-0.48l0.48-0.24
		l0.24-0.24h0.24l0.24-0.24l0.72-0.72L368.11,291.77L368.11,291.77z"/>
	<path id="Josefstadt" class="st6" d="M340.03,349.38v-0.24l0.24-0.48l0.24-0.96l0.48-1.2l1.92-5.52l0.24-0.24h1.2l7.68-0.48h0.24
		l0.96-0.24l5.04,0.48l4.56,0.72l2.4,0.24l3.12,0.24l3.84,0.24v0.24l1.2,0.96l-0.24,1.92l-1.44,9.36l-0.48,3.12l-0.24,2.16v0.72
		l0.48,2.4v0.24v0.24v0.24h0.24v0.24v0.24l0.24,0.24l0.24,0.48l-6.96,1.44h-0.24l-1.44,0.24l-4.08-0.24l-2.64-0.72l-4.56-1.44
		l-2.64-0.72l-9.84-3.12h-0.24l-1.2-0.48l0.24-0.24v-0.24l0.24-0.24v-0.24v-0.24l0.24-0.24v-0.24v-0.24v-0.24v-0.24l0.24-0.48v-0.48
		l0.24-3.6v-0.48v-0.24v-0.24v-0.72v-0.24l0.24-0.96L340.03,349.38z"/>
	<path id="Neubau" class="st6" d="M335.71,372.65l-0.24-3.6v-0.48v-0.24v-0.24v-0.24v-0.24v-0.24v-0.24v-0.24v-0.24h0.24v-0.24
		v-0.24v-0.24l0.24-0.24v-0.24l1.68-4.32l0.48-0.96l0.24-0.48l1.2,0.48h0.24l9.84,3.12l2.64,0.72l4.56,1.44l2.64,0.72l4.08,0.24
		l1.44-0.24h0.24l6.96-1.44l4.8,5.28l1.92,2.16l1.92,2.16l2.4,2.64l-0.72,0.96l-1.2,1.68h-0.24v0.24h-0.24v0.24h-0.24v0.24h-0.24
		v0.24h-0.24v0.24h-0.24l-0.24,0.24h-0.24v0.24h-0.24l-0.24,0.24h-0.24h-0.24v0.24h-0.24h-0.24l-1.68,0.48l-4.56,1.68l-4.08,1.92
		l-1.2,0.72l-2.88,1.44l-2.16,1.44l-0.48,0.24l-2.88,1.68l-2.16,0.96l-2.16,0.72l-1.44,0.48l-2.64,0.72l-4.56,1.2l-3.84,0.96
		l-0.24,0.24l-0.48,0.24l-0.72-2.4l-0.72-2.4l-0.48-2.16v-0.48l-0.24-0.48l-0.48-1.68v-0.48l-0.48-1.44v0.24l-0.48-2.4v-0.24
		l-0.72-3.12l-0.24-1.92v-0.48l-0.24-3.84V372.65L335.71,372.65z"/>
	<path id="Mariahilf" class="st6" d="M344.83,418.26h-2.4h-0.96l-0.96,0.24l-0.72,0.24h-0.24l-0.96-1.44l-2.16-5.28l-0.24-0.72
		l0.48-1.44l0.48-1.44l0.48-0.72l2.16-6.24l0.72-2.88h0.24v-0.24v-0.24l-0.24-0.96v-0.24l0.48-0.24l0.24-0.24l3.84-0.96l4.56-1.2
		l2.64-0.72l1.44-0.48l2.16-0.72l2.16-0.96l2.88-1.68l0.48-0.24l2.16-1.44l2.88-1.44l1.2-0.72l4.08-1.92l4.56-1.68l1.68-0.48h0.24
		h0.24v-0.24h0.24h0.24l0.24-0.24h0.24v-0.24h0.24l0.24-0.24h0.24v-0.24h0.24v-0.24h0.24v-0.24h0.24v-0.24h0.24v-0.24h0.24l1.2-1.68
		l0.72-0.96l0.24,0.48l1.68,1.2l1.44,1.2l1.2,0.96h0.24l1.68,1.92l0.24,0.24l1.92,2.16l-0.24,0.48l-0.24,0.24l-0.24,0.24l-0.48,0.48
		l-3.36,2.64l-0.24,0.24l-0.72,0.72l-0.48,0.24l-0.24,0.24l-0.96,0.96l-0.72,0.48l-0.48,0.24l-0.24,0.24h-0.24l-0.24,0.24h-0.24
		l-0.48,0.24l-0.24,0.24h-0.24l-0.48,0.24l-0.96,0.24l-0.48,0.24h-0.48l-0.24,0.24l-0.24-0.48l-0.96,0.24l-0.72,0.24l-2.64,0.72
		h-0.24h-0.24v0.24h-0.24h-0.24l-0.24,0.24h-0.24l-0.24,0.24h-0.24l-0.24,0.24l-0.24,0.24h-0.24l-0.24,0.24l-0.24,0.24l-0.24,0.24
		l-0.24,0.24l-0.24,0.24l-0.24,0.24l-0.24,0.24v0.24l-0.24,0.24v0.24l-0.24,0.24v0.24l-0.24,0.24v0.24v0.24v0.24h-0.24v0.24
		l0.24,1.44v0.48v0.24v0.48v1.2v0.24v0.24v0.24v0.24v0.24v0.24v0.24v0.24v0.24l-0.24,0.24v0.24v0.24v0.24h-0.24v0.24v0.24v0.24
		h-0.24l-0.24,0.96l-0.24,0.24v0.24l-0.72,0.96v0.24v0.24l-0.96,1.2h-0.24v0.24l-0.48,0.72h-0.24v0.24h-0.24v0.24h-0.24l-0.24,0.24
		h-0.24v0.24h-0.24l-0.24,0.24h-0.24v0.24h-0.24h-0.24l-0.24,0.24h-0.24h-0.24v0.24h-0.24h-0.48l-4.32,1.2l-2.4,0.72h-0.48
		l-2.16,0.48l-0.24,0.24h-0.24h-0.24h-0.24l-2.64,0.24h-0.72l-3.12,0.48L344.83,418.26L344.83,418.26z"/>
	<path id="Margareten" class="st6" d="M360.19,445.14l-0.24-0.96l-0.24-0.24l-2.88-5.28l-3.36-6l-3.12-5.04l-4.32-7.2l-0.72-1.44
		l-0.48-0.72h0.24l3.12-0.48h0.72l2.64-0.24h0.24h0.24h0.24l0.24-0.24l2.16-0.48h0.48l2.4-0.72l4.32-1.2h0.48h0.24v-0.24h0.24h0.24
		l0.24-0.24h0.24h0.24v-0.24h0.24l0.24-0.24h0.24v-0.24h0.24l0.24-0.24h0.24v-0.24h0.24v-0.24h0.24l0.48-0.72v-0.24h0.24l0.96-1.2
		v-0.24v-0.24l0.72-0.96v-0.24l0.24-0.24l0.24-0.96h0.24v-0.24v-0.24v-0.24h0.24v-0.24v-0.24v-0.24l0.24-0.24v-0.24v-0.24v-0.24
		v-0.24v-0.24v-0.24v-0.24v-0.24v-0.24v-1.2v-0.48v-0.24v-0.48l-0.24-1.44v-0.24h0.24v-0.24v-0.24v-0.24l0.24-0.24v-0.24l0.24-0.24
		v-0.24l0.24-0.24v-0.24l0.24-0.24l0.24-0.24l0.24-0.24l0.24-0.24l0.24-0.24l0.24-0.24l0.24-0.24h0.24l0.24-0.24l0.24-0.24h0.24
		l0.24-0.24h0.24l0.24-0.24h0.24h0.24v-0.24h0.24h0.24l2.64-0.72l0.72-0.24l0.96-0.24l0.24,0.48l3.12,5.52l1.92,1.92l-0.24,0.72
		l4.32,5.04l-1.2,2.4l-2.4,3.6l4.08,5.28l0.96,0.96l1.92,2.88l3.84,6l2.16,3.12l-1.44,0.72l-1.92,0.96h-0.24l-0.24,0.24l-1.92,0.96
		h-0.24l-0.72,0.48l-1.92,0.96l-0.48,0.24l-1.68,0.96l-3.84,2.16l-0.48,0.24l-1.92,0.72l-0.24,0.24h-0.24l-1.2,0.48l-1.44,0.48
		l-1.68,0.72l-0.72,0.24l-1.68,0.72h-0.48h-0.24v0.24h-0.24h-0.24h-0.24h-0.24l-0.72,0.24l-0.72,0.24h-1.68l-3.36,0.48l-3.12,0.24
		l-0.48,0.24L360.19,445.14z"/>
	<path id="Wieden" class="st6" d="M397.39,431.7l-2.16-3.12l-3.84-6l-1.92-2.88l-0.96-0.96l-4.08-5.28l2.4-3.6l1.2-2.4l-4.32-5.04
		l0.24-0.72l-1.92-1.92l-3.12-5.52l0.24-0.24h0.48l0.48-0.24l0.96-0.24l0.48-0.24h0.24l0.24-0.24l0.48-0.24h0.24l0.24-0.24h0.24
		l0.24-0.24l0.48-0.24l0.72-0.48l0.96-0.96l0.24-0.24l0.48-0.24l0.72-0.72l0.24-0.24l3.36-2.64l0.48-0.48l0.24-0.24l0.24-0.24v0.48
		l1.2-0.96h0.24v-0.24l0.72-0.48l0.96-0.72v-0.24h0.24l0.24-0.24h0.24l0.24-0.24h0.24h0.24l0.24-0.24h0.24h0.24h0.72h0.24h0.24h0.24
		h0.24l0.24,0.24h0.24l0.48,0.24l0.72,0.24l0.96,0.48l0.72,0.24l1.68,0.48l0.48,0.24l0.24,0.24h0.72l1.68,0.72h0.48l2.4-0.96
		l0.48,1.2l-0.72,3.36v0.24v0.24v0.24v0.24v0.24v0.24v0.24v0.24l0.96,2.16l2.64,6.48v0.24h0.24v0.24v0.24h0.24v0.24l0.96,1.44
		l1.44,2.64v0.24h0.24v0.24v0.24l1.2,2.16v0.24v0.24l0.24,0.24l3.6,9.6l-0.24,0.96l-2.4,0.96l-0.72,0.24l-5.52,2.64h-0.48
		l-0.24,0.24l-4.8,2.16l-0.24,0.24v0.24v0.24l-0.24,0.24l0.24,1.44l-0.48,0.24l-1.92,0.72l-0.72,0.24h-0.24h-0.24h-0.24
		L397.39,431.7z"/>
	<path id="Landstraße" class="st6" d="M420.9,419.22l0.24-0.96l-3.6-9.6l-0.24-0.24v-0.24v-0.24l-1.2-2.16v-0.24v-0.24h-0.24v-0.24
		l-1.44-2.64l-0.96-1.44v-0.24h-0.24v-0.24v-0.24h-0.24v-0.24l-2.64-6.48l-0.96-2.16v-0.24v-0.24v-0.24v-0.24v-0.24v-0.24v-0.24
		v-0.24l0.72-3.36l-0.48-1.2l2.88-0.96l5.04-7.68l2.4-2.88l0.24-0.24v-0.24l0.24-0.24l0.24-0.24v-0.24l0.24-0.24v-0.24h0.24v-0.24
		l1.44-2.88l4.56-9.6l0.24-0.24v-0.24v-0.24l0.24-0.24v-0.24v-0.24v-0.24l0.24-1.44l0.48-3.36v-0.72v-0.24l0.48-1.2v-0.24l0.24-0.24
		l2.88-1.92l1.68-0.72l1.44-0.48l1.68-0.24h1.68l1.68,0.48l0.96,0.24l0.48,0.24h0.24h0.24v0.24l0.72,0.24l0.72,0.24l0.24,0.24
		l0.72,0.48l0.24,0.24h0.24v0.24h0.24v0.24h0.24l0.24,0.24l0.24,0.24l0.24,0.24l0.24,0.24v0.24h0.24v0.24h0.24v0.24v0.24h0.24v0.24
		l0.24,0.24v0.24l0.24,0.24v0.24l1.68,3.6v0.48l0.24,0.48l0.24,0.48l0.24,0.48v0.24l0.24,0.48v0.48l0.24,0.48v0.48l0.24,0.48v0.48
		l0.24,0.48v0.48v0.48l0.24,0.48l0.24,2.4l0.48,3.84v0.24l0.24,0.24v0.24v0.24v0.24l0.24,0.24v0.24v0.24l0.24,0.24v0.24v0.24h0.24
		v0.24v0.24h0.24v0.24l0.24,0.24v0.24l0.24,0.24v0.24l0.24,0.24l0.24,0.24l0.24,0.24v0.24l1.2,0.96l1.2,0.96l1.2,0.72l1.2,0.24
		l3.36,0.96l0.72,0.24l1.92,0.48l1.92,0.72h0.48l1.68,0.96l0.24,0.24l1.2,0.96l1.2,1.2l1.2,1.68l0.48,0.96l0.96,1.92l0.48,1.44
		l0.48,0.72l0.96,2.16v0.24l0.24,0.48l0.24,0.24l0.24,0.24v0.48l0.24,0.24l0.24,0.48l0.24,0.24l0.24,0.24l0.24,0.24l0.24,0.48
		l0.48,0.48l0.24,0.24l0.48,0.48l0.24,0.24l0.48,0.48l0.24,0.24l0.24,0.48l0.48,0.24l0.24,0.48l0.48,0.24l0.48,0.48l0.24,0.24
		l0.48,0.48l0.24,0.24l14.16,12.48l2.64,2.16l6,3.6l9.84,4.56l1.68,0.72l-0.48,0.96l-0.24,0.24l-0.72-0.24h-0.24h-0.24h-0.24h-0.24
		h-0.24l-0.24,0.24l-0.24,0.24l-0.72,0.72l-0.24,0.72l-0.24,0.24h-0.24l-0.24,0.24h-0.24h-0.24h-0.24h-0.48l-0.72-0.24h-0.24
		l-0.48-0.24h-0.48l-8.16-2.64l-0.96-0.48l-0.48-0.24l-0.72-0.48l-0.72-0.24l-0.48-0.48l-0.72-0.72l-0.48-0.48l-0.48,1.44l-0.96,3.6
		h-0.24l-1.68-0.48l-0.72-0.24l-0.72-0.24h-0.24l-0.48,0.24v0.24l-0.24,0.24l-0.24,0.24l-0.24,0.48v0.24l-2.16,0.48l-0.24-0.24
		h-0.48l-0.72-0.48h-0.72v0.24l-0.24,0.24l-2.4,3.84l-1.44,2.16l-3.12-1.2l-0.72-0.24l-2.4-1.2l-5.52-2.4l-0.96-0.48h-0.24v0.24
		h-0.24v0.24h-0.24l-0.24,0.24v0.24h-0.24l-1.2-1.44l-0.24-0.24l-0.72-0.96l-1.68,1.2l-0.96,0.72l-0.72,0.48l2.4,3.84l-0.72,1.2
		l-1.44,1.68l0.72,0.72h0.24v0.24l-1.44,1.68l-0.48-0.24l-0.48-0.24l-1.68,2.16l-1.2,1.92l-0.96,1.44l-1.68,1.44l-0.72,0.48
		l-2.4,1.92l-1.2,7.68l-0.24,1.44l-3.12-0.24v-0.24l-0.96-0.96l-2.88-2.64l-4.08-4.32l-2.4-2.64l-8.88-10.8l-1.44-2.4l-0.72-1.68
		v-0.48l-0.24-0.24v-0.24v-0.24l-0.24-0.24v-0.24l-0.24-0.24l-1.44-1.92l-0.96-1.2l-0.24-0.48l-1.2-1.44l-0.24-0.24v-0.24
		l-0.24-0.24v-0.24h-0.24v-0.24l-0.72-2.16L420.9,419.22z"/>
	<path id="Leopoldstadt" class="st6" d="M428.35,351.77l-0.96-0.96l-0.24-0.24h-0.24v-0.24h-0.24h-0.24l-1.2,0.24l-2.4,0.24
		l-3.84-0.24l-1.92-0.48l-1.44-0.24l-1.2-0.48l-1.92-0.96l-1.44-1.2l-0.48-0.48l-0.96-1.2l-0.72-1.2l-0.72-1.68l-1.68-3.36
		l-0.24-0.48l-0.72-1.2l-0.96-1.2l-1.92-2.16l-2.16-2.64l-0.24-0.24l-0.48-0.48l-0.96-0.72l-0.48-0.72l-0.24-0.24l-0.24-0.24v-0.24
		h-0.24v-0.24l-0.24-0.48l-0.24-0.24l-0.24-0.24l-0.48-0.72v-0.24v-0.24l-0.24-0.24v-0.24v-0.24v-0.24l-0.24-0.24v-0.24v-0.24v-0.24
		v-0.24v-0.24h-0.24v-0.24v-0.24v-0.24v-0.24v-0.24v-0.24v-0.24v-0.24l-0.24-0.48v-0.24v-0.24v-0.24v-0.24v-0.24v-0.24v-0.24v-0.24
		v-0.24v-0.24v-0.24v-0.24v-0.24v-0.24v-0.24v-0.24v-0.24v-0.24v-0.24v-0.24v-0.24v-0.24v-0.24v-0.24v-0.24v-0.24v-0.24l-0.24-0.24
		v-0.24v-0.24v-0.24v-0.24v-0.24l-0.24-0.24v-0.24v-0.24v-0.24l-0.24-0.24v-0.24v-0.24l-0.24-0.24l2.16-0.72l2.4-0.72l1.2-0.48v-1.2
		l0.24-0.24l3.12-4.56l0.72-0.24l1.68-0.72l1.92-0.96l6.24-3.12l3.36,2.4l2.16,1.2l1.68,1.2l3.12,5.76l0.24,0.72v0.24h0.24h0.24
		h0.24l2.64-1.2l6.24-5.28l0.48-0.96l-0.48-3.36l-1.2-1.44l-0.96-1.44h-0.24l1.2-1.2l0.72-0.48l0.48-0.24l8.88-6.96l0.24-0.24
		l5.04-3.84l-0.24-0.24l1.68-1.2l2.16-1.68l1.92-1.44l1.44,1.68l0.96,1.44l0.48,0.48l1.2,1.68l2.4,2.88l1.92,2.4l1.92,2.4l1.44,1.92
		l1.92,1.92l2.16,2.88l3.6,4.08l0.48,0.24l1.68,1.92l0.24,0.48l3.36,3.84l1.2,1.44l2.16,2.16l10.08,11.28l2.88,3.12l3.36,3.6
		l5.52,6.24l4.32,4.32l8.16,8.88l4.8,5.04l7.44,7.92l5.52,5.76l7.2,7.44l5.76,5.76l6.48,6.72l0.72,0.48l5.76,6l7.2,7.2l6,6
		l6.96,6.96l1.68,1.92l0.48,0.24l1.44,1.68l11.04,10.8l12,11.52l1.92,2.16l9.6,9.12l1.68,1.44l0.24,0.48l0.48,0.24l4.32,4.32
		l7.68,6.96l1.92,1.92l1.68,1.44l2.16,1.92l1.92,1.68l0.48,0.48l4.56,3.84l1.92,1.68l0.48,0.48l-2.88,2.88l-3.36,3.36l-1.2-0.48
		l-2.4-1.44v-0.24h-0.24l-2.16-1.2l-2.4-1.44l-2.16-1.2l-2.16-0.96l-3.36-1.68l-0.48-0.24l-2.4-0.96l-1.92-1.2l-1.2-0.72l-2.16-1.44
		l-5.28-2.88l-3.36-2.16l-2.4-1.68l-0.48-0.24l-0.24-0.24l-0.24-0.24h-0.24l-0.24-0.24l-0.48-0.24l-0.24-0.24l-0.24-0.24h-0.24
		l-0.48-0.24l-0.24-0.24l-4.56-2.64l-7.44-4.32l-0.48-0.24l-0.48-0.24l-0.48-0.24l-0.48-0.24l-0.48-0.24l-0.48-0.24l-0.48-0.24
		l-0.48-0.24l-0.48-0.24l-0.48-0.24l-0.24-0.24h-0.24l-8.64-3.84l-3.36-1.68l-0.72-0.24l-1.92-0.72l-9.12-3.84l-1.92-0.96
		l-2.88-1.44h-0.24l-6-2.64l-15.84-6.96l-0.96-0.48l-2.88-1.2l-4.08-1.92l-7.2-3.12l-2.64-0.96l-1.68-0.72l-9.84-4.56l-6-3.6
		l-2.64-2.16l-14.16-12.48l-0.24-0.24l-0.48-0.48l-0.24-0.24l-0.48-0.48l-0.48-0.24l-0.24-0.48l-0.48-0.24l-0.24-0.48l-0.24-0.24
		l-0.48-0.48l-0.24-0.24l-0.48-0.48l-0.24-0.24l-0.48-0.48l-0.24-0.48l-0.24-0.24l-0.24-0.24l-0.24-0.24l-0.24-0.48l-0.24-0.24
		v-0.48l-0.24-0.24l-0.24-0.24l-0.24-0.48v-0.24l-0.96-2.16l-0.48-0.72l-0.48-1.44l-0.96-1.92l-0.48-0.96l-1.2-1.68l-1.2-1.2
		l-1.2-0.96l-0.24-0.24l-1.68-0.96h-0.48l-1.92-0.72l-1.92-0.48l-0.72-0.24l-3.36-0.96l-1.2-0.24l-1.2-0.72l-1.2-0.96l-1.2-0.96
		v-0.24l-0.24-0.24l-0.24-0.24l-0.24-0.24v-0.24l-0.24-0.24v-0.24l-0.24-0.24v-0.24h-0.24v-0.24v-0.24h-0.24v-0.24v-0.24l-0.24-0.24
		v-0.24v-0.24l-0.24-0.24v-0.24v-0.24v-0.24l-0.24-0.24v-0.24l-0.48-3.84l-0.24-2.4l-0.24-0.48v-0.48v-0.48l-0.24-0.48v-0.48
		l-0.24-0.48v-0.48l-0.24-0.48v-0.48l-0.24-0.48v-0.24l-0.24-0.48l-0.24-0.48l-0.24-0.48v-0.48l-1.68-3.6v-0.24l-0.24-0.24v-0.24
		l-0.24-0.24v-0.24h-0.24v-0.24v-0.24h-0.24v-0.24h-0.24v-0.24l-0.24-0.24l-0.24-0.24l-0.24-0.24l-0.24-0.24h-0.24v-0.24h-0.24
		v-0.24h-0.24l-0.24-0.24l-0.72-0.48l-0.24-0.24l-0.72-0.24l-0.72-0.24v-0.24h-0.24h-0.24l-0.48-0.24l-0.96-0.24l-1.68-0.48h-1.68
		l-1.68,0.24l-1.44,0.48l-1.68,0.72l-2.88,1.92l-0.24,0.24v0.24l-0.48,1.2L428.35,351.77L428.35,351.77z"/>
	<path id="Innere_Stadt" class="st6" d="M391.63,385.61l0.24-0.48l-1.92-2.16l-0.24-0.24l-1.68-1.92h-0.24l-1.2-0.96l-1.44-1.2
		l-1.68-1.2l-0.24-0.48l-2.4-2.64l-1.92-2.16l-1.92-2.16l-4.8-5.28l-0.24-0.48l-0.24-0.24v-0.24v-0.24h-0.24v-0.24v-0.24v-0.24
		l-0.48-2.4v-0.72l0.24-2.16l0.48-3.12l1.44-9.36l0.24-1.92l6,1.2l1.68,0.24l3.12-2.16l14.16-9.84l1.44-1.68l0.48,0.48l0.24,0.24
		l2.16,2.64l1.92,2.16l0.96,1.2l0.72,1.2l0.24,0.48l1.68,3.36l0.72,1.68l0.72,1.2l0.96,1.2l0.48,0.48l1.44,1.2l1.92,0.96l1.2,0.48
		l1.44,0.24l1.92,0.48l3.84,0.24l2.4-0.24l1.2-0.24h0.24h0.24v0.24h0.24l0.24,0.24l0.96,0.96v0.72l-0.48,3.36l-0.24,1.44v0.24v0.24
		v0.24l-0.24,0.24v0.24v0.24l-0.24,0.24l-4.56,9.6l-1.44,2.88v0.24h-0.24v0.24l-0.24,0.24v0.24l-0.24,0.24l-0.24,0.24v0.24
		l-0.24,0.24l-2.4,2.88l-5.04,7.68l-2.88,0.96l-2.4,0.96h-0.48l-1.68-0.72h-0.72l-0.24-0.24l-0.48-0.24l-1.68-0.48l-0.72-0.24
		l-0.96-0.48l-0.72-0.24l-0.48-0.24h-0.24l-0.24-0.24h-0.24h-0.24h-0.24h-0.24h-0.72h-0.24h-0.24l-0.24,0.24h-0.24h-0.24l-0.24,0.24
		h-0.24l-0.24,0.24h-0.24v0.24l-0.96,0.72l-0.72,0.48v0.24h-0.24l-1.2,0.96L391.63,385.61L391.63,385.61z"/>
</g>
<g id="headline">
	<rect x="35" y="30" class="st5" width="253.04" height="64.1"/>
	<text transform="matrix(1 0 0 1 35 40.3821)" class="st7 st0">SELECTED NUMBERS FOR</text>
	<text transform="matrix(1 0 0 1 35 82.3821)" class="st2 st10">VIENNA</text>
</g>
<g id="button">
	<g id="button_popdens" onclick="showTopic(1)">
		<rect x="35" y="109.77" class="st4" width="190" height="16"/>
		<circle class="st1" cx="39.5" cy="117.22" r="4.5"/>
		<circle id="bullet_popdens" class="st11" cx="39.5" cy="117.22" r="2.7"/>
		<rect x="49.83" y="112.72" class="st5" width="166.13" height="12.57"/>
		<text transform="matrix(1 0 0 1 49.8286 121.3157)" class="st7 st9">Population density</text>
	</g>
	<g id="button_age" onclick="showTopic(2)">
		<rect x="35" y="127.77" class="st4" width="190" height="16"/>
		<circle class="st1" cx="39.5" cy="135.22" r="4.5"/>
		<circle id="bullet_age" class="st11" cx="39.5" cy="135.22" r="2.7"/>
		<rect x="49.83" y="130.72" class="st5" width="166.13" height="12.57"/>
		<text transform="matrix(1 0 0 1 49.8286 139.3157)" class="st7 st9">Average age</text>
	</g>
	<g id="button_females" onclick="showTopic(3)">
		<rect x="35" y="145.77" class="st4" width="190" height="16"/>
		<circle class="st1" cx="39.5" cy="153.22" r="4.5"/>
		<circle id="bullet_female" class="st11" cx="39.5" cy="153.22" r="2.7"/>
		<rect x="49.83" y="148.72" class="st5" width="166.13" height="12.57"/>
		<text transform="matrix(1 0 0 1 49.8286 157.3157)" class="st7 st9">Rate females</text>
	</g>
	<g id="button_males" onclick="showTopic(5)">
		<rect x="35" y="180.77" class="st4" width="190" height="16"/>
		<circle class="st1" cx="39.5" cy="189.22" r="4.5"/>
		<circle id="bullet_male" class="st11" cx="39.5" cy="189.22" r="2.7"/>
		<rect x="49.83" y="184.72" class="st5" width="166.13" height="12.57"/>
		<text transform="matrix(1 0 0 1 49.8286 193.3157)" class="st7 st9">Rate males</text>
	</g>
	<g id="button_foreign" onclick="showTopic(4)">
		<rect x="35" y="163.77" class="st4" width="190" height="16"/>
		<circle class="st1" cx="39.5" cy="171.22" r="4.5"/>
		<circle id="bullet_foreign" class="st11" cx="39.5" cy="171.22" r="2.7"/>
		<rect x="49.83" y="166.72" class="st5" width="166.13" height="12.57"/>
		<text transform="matrix(1 0 0 1 49.8286 175.3157)" class="st7 st9">Rate foreign nationality</text>
	</g>
	
</g>
<g id="legend">
	<rect x="780" y="230" class="st5" width="160" height="15.79"/>
	<text id="legend_heading1" transform="matrix(1 0 0 1 780 238.592)" class="st2 st9">Legend</text>
	<text id="legend_heading2" transform="matrix(1 0 0 1 780 254.2971)" class="st2 st9">(Choose a topic first)</text>
	<text id="legend_text" transform="matrix(1 0 0 1 780 410.8577)" class="st2 st8">Mean value for Vienna:</text>
	<text id="legend_meanvalue" transform="matrix(1 0 0 1 780 424.9739)" class="st7 st8">...</text>
	<text id="legend_source" transform="matrix(1 0 0 1 780 592.4426)"><tspan x="0" y="0" class="st7 st8">Data source: OGD Vienna, </tspan><tspan x="0" y="12" class="st7 st8">Bevölkerungsindikatoren Wien</tspan><tspan x="0" y="29" class="st7 st8">Reference year: 2011</tspan></text>
	<line class="st3" x1="825" y1="297" x2="900" y2="297"/>
	<rect x="848.72" y="284.72" class="st5" width="51.28" height="10.29"/>
	<text id="classmax1" transform="matrix(1 0 0 1 900 291.8787)" text-anchor="end"  class="st7 st8">class 1</text>
	<line class="st3" x1="825" y1="327" x2="900" y2="327"/>
	<rect x="848.72" y="314.72" class="st5" width="51.28" height="10.29"/>
	<text id="classmax2" transform="matrix(1 0 0 1 900 321.8787)" text-anchor="end"  class="st7 st8">class 2</text>
	<line class="st3" x1="825" y1="357" x2="900" y2="357"/>
	<rect x="848.72" y="344.72" class="st5" width="51.28" height="10.29"/>
	<text id="classmax3" transform="matrix(1 0 0 1 900 351.8792)" text-anchor="end"  class="st7 st8">class 3</text>
	
	<g class="novalue">
		<rect id="boxclass1" x="780" y="275" class="st6" width="45" height="22"/>
		<rect id="boxclass2" x="780" y="305" class="st6" width="45" height="22"/>
		<rect id="boxclass3" x="780" y="335" class="st6" width="45" height="22"/>
		<rect id="boxclass4" x="780" y="365" class="st6" width="45" height="22"/>
	</g>
	<line class="st3" x1="825" y1="387" x2="900" y2="387"/>
	<rect x="848.72" y="374.72" class="st5" width="51.28" height="10.29"/>
	<text id="classmax4" transform="matrix(1 0 0 1 900 381.8792)" text-anchor="end"  class="st7 st8">class 4</text>
	
</g>
</svg>
